<svg width="1920" height="1080" viewBox="0 0 1920 1080" fill="none" xmlns="http://www.w3.org/2000/svg">
<g id="Firing...">
<rect width="1920" height="1080" fill="black" fill-opacity="0.7"/>
<g id="Frame 2">
<rect x="637" y="476" width="646.505" height="127" rx="16" fill="#2D2D2D"/>
<g id="LOGO">
<g id="Union">
<path d="M681.056 558.419C681.646 558.419 682.125 558.889 682.125 559.471V567.809C682.125 568.39 681.646 568.86 681.056 568.86H679.822C679.232 568.86 678.753 568.39 678.753 567.809V563.135C678.753 562.554 678.276 562.083 677.686 562.083H672.209C671.619 562.083 671.14 561.611 671.14 561.029V559.471C671.14 558.889 671.619 558.419 672.209 558.419H681.056Z" fill="white"/>
<path d="M728.534 510.214C730.122 509.794 731.576 511.227 731.151 512.793L727.778 525.196C727.353 526.762 725.367 527.286 724.204 526.139L720.954 522.937L715.365 528.396C716.398 528.991 717.574 529.686 718.723 530.498C721.942 532.772 725.401 536.229 726.157 541.805C726.837 546.833 724.548 551.256 723.961 554.177C723.723 555.365 724.164 556.425 724.488 557.128C724.587 557.343 724.61 557.584 724.552 557.812L723.348 562.565C723.205 563.129 722.621 563.48 722.072 563.268C721.303 562.969 720.579 562.545 719.954 561.95C719.044 561.083 718.538 560.04 718.288 559.009C717.839 557.153 718.187 555.091 718.51 553.485C719.249 549.799 720.302 546.328 719.804 542.643C719.38 539.507 717.497 537.404 714.988 535.631C713.709 534.728 712.38 533.99 711.04 533.224C710.913 533.152 710.784 533.076 710.651 533L687.636 555.482L687.598 555.443V561.432C687.598 562.014 687.121 562.486 686.531 562.486H685.297C684.707 562.486 684.228 562.014 684.228 561.432V556.761C684.228 556.179 683.749 555.707 683.159 555.707H677.682C677.092 555.707 676.615 555.235 676.615 554.653V553.095C676.615 552.513 677.092 552.043 677.682 552.043H685.091L707.144 530.493C706.212 529.517 705.331 528.108 704.645 527.06C703.81 525.784 702.938 524.503 701.861 523.334C699.809 521.106 697.025 519.269 692.407 519.385C687.679 519.504 684.241 519.281 681.826 518.928C680.622 518.752 679.63 518.538 678.838 518.298C678.433 518.176 677.97 518.016 677.519 517.797C676.99 517.54 676.912 516.874 677.281 516.419L680.187 512.839C680.45 512.515 680.883 512.376 681.297 512.452C681.856 512.555 682.448 512.633 682.771 512.681C684.725 512.966 687.774 513.18 692.24 513.067C699.117 512.893 703.592 515.815 706.606 519.088C708.063 520.669 709.177 522.324 710.034 523.633C710.885 524.933 711.352 525.639 711.704 526.04L717.93 519.957L714.99 517.06C713.828 515.913 714.359 513.957 715.947 513.537L728.534 510.214Z" fill="white"/>
</g>
<path id="Vector" d="M688.675 550.948L721.744 557.623L721.527 558.656L721.314 559.688L686.705 552.704L686.625 551.931L683.161 517.665L685.29 517.46L688.675 550.948Z" fill="white" fill-opacity="0.5"/>
</g>
<text id="Firing towards Cavalry..." fill="white" xml:space="preserve" style="white-space: pre" font-family="Lato" font-size="47.2203" font-weight="bold" letter-spacing="-0.02em"><tspan x="765.558" y="556.64">Firing towards Cavalry...</tspan></text>
</g>
</g>
</svg>
