<svg width="17" height="17" viewBox="0 0 17 17" fill="none" xmlns="http://www.w3.org/2000/svg">
<path d="M8.89716 12.3495C8.65792 12.5863 8.27225 12.585 8.03456 12.3467L3.4149 7.71467C3.18316 7.48232 3.17631 7.10842 3.39938 6.86773L3.72237 6.51922C3.96035 6.26244 4.36498 6.25769 4.60892 6.5088L7.61831 9.60667L7.61831 2.38889C7.61831 2.05138 7.89192 1.77778 8.22943 1.77778L8.69951 1.77778C9.03702 1.77778 9.31062 2.05138 9.31062 2.38889L9.31062 9.60667L12.391 6.49959C12.6358 6.2527 13.0369 6.25946 13.2732 6.51444L13.598 6.86494C13.8221 7.10675 13.814 7.48273 13.5797 7.71466L8.89716 12.3495Z" fill="white"/>
<path d="M3.61111 15.2222C3.2736 15.2222 3 14.9486 3 14.6111V14.6111C3 14.2736 3.2736 14 3.61111 14L13.3889 14C13.7264 14 14 14.2736 14 14.6111V14.6111C14 14.9486 13.7264 15.2222 13.3889 15.2222L3.61111 15.2222Z" fill="white"/>
</svg>
