<svg width="17" height="17" viewBox="0 0 17 17" fill="none" xmlns="http://www.w3.org/2000/svg">
<path d="M10 3.67082C10 4.11628 10.5386 4.33936 10.8536 4.02438L11.6816 3.19633C11.8769 3.00106 12.1934 3.00106 12.3887 3.19633L13.8037 4.61129C13.9989 4.80655 13.9989 5.12314 13.8037 5.3184L12.9756 6.14645C12.6606 6.46143 12.8837 7 13.3292 7H14.5C14.7761 7 15 7.22386 15 7.5V9.5C15 9.77614 14.7761 10 14.5 10H13.3292C12.8837 10 12.6606 10.5386 12.9756 10.8536L13.8037 11.6816C13.9989 11.8769 13.9989 12.1934 13.8037 12.3887L12.3887 13.8037C12.1934 13.9989 11.8769 13.9989 11.6816 13.8037L10.8536 12.9756C10.5386 12.6606 10 12.8837 10 13.3292V14.5C10 14.7761 9.77614 15 9.5 15H7.5C7.22386 15 7 14.7761 7 14.5V13.3292C7 12.8837 6.46143 12.6606 6.14645 12.9756L5.3184 13.8037C5.12314 13.9989 4.80655 13.9989 4.61129 13.8037L3.19633 12.3887C3.00106 12.1934 3.00106 11.8769 3.19633 11.6816L4.02438 10.8536C4.33936 10.5386 4.11628 10 3.67082 10H2.5C2.22386 10 2 9.77614 2 9.5V7.5C2 7.22386 2.22386 7 2.5 7H3.67082C4.11628 7 4.33936 6.46143 4.02438 6.14645L3.19633 5.3184C3.00106 5.12314 3.00106 4.80655 3.19633 4.61129L4.61129 3.19633C4.80655 3.00106 5.12314 3.00106 5.3184 3.19633L6.14645 4.02438C6.46143 4.33936 7 4.11628 7 3.67082V2.5C7 2.22386 7.22386 2 7.5 2H9.5C9.77614 2 10 2.22386 10 2.5V3.67082ZM8.5 5.4668C6.82474 5.4668 5.4668 6.82474 5.4668 8.5C5.4668 10.1753 6.82474 11.5332 8.5 11.5332C10.1753 11.5332 11.5332 10.1753 11.5332 8.5C11.5332 6.82474 10.1753 5.4668 8.5 5.4668Z" fill="white"/>
</svg>
