<?xml version="1.0" encoding="UTF-8"?>
<svg width="1000" height="1000" viewBox="0 0 1000 1000" xmlns="http://www.w3.org/2000/svg">
  <g id="test-paths">
<path d="M0,0 L10,0 L10,10 L0,10 Z" fill="#000000"/>
<path d="M20,0 L30,0 L30,10 L20,10 Z" fill="#000000"/>
<path d="M40,0 L50,0 L50,10 L40,10 Z" fill="#000000"/>
<path d="M60,0 L70,0 L70,10 L60,10 Z" fill="#000000"/>
<path d="M80,0 L90,0 L90,10 L80,10 Z" fill="#000000"/>
<path d="M100,0 L110,0 L110,10 L100,10 Z" fill="#000000"/>
<path d="M120,0 L130,0 L130,10 L120,10 Z" fill="#000000"/>
<path d="M140,0 L150,0 L150,10 L140,10 Z" fill="#000000"/>
<path d="M160,0 L170,0 L170,10 L160,10 Z" fill="#000000"/>
<path d="M180,0 L190,0 L190,10 L180,10 Z" fill="#000000"/>
<path d="M200,0 L210,0 L210,10 L200,10 Z" fill="#000000"/>
<path d="M220,0 L230,0 L230,10 L220,10 Z" fill="#000000"/>
<path d="M240,0 L250,0 L250,10 L240,10 Z" fill="#000000"/>
<path d="M260,0 L270,0 L270,10 L260,10 Z" fill="#000000"/>
<path d="M280,0 L290,0 L290,10 L280,10 Z" fill="#000000"/>
<path d="M300,0 L310,0 L310,10 L300,10 Z" fill="#000000"/>
<path d="M320,0 L330,0 L330,10 L320,10 Z" fill="#000000"/>
<path d="M340,0 L350,0 L350,10 L340,10 Z" fill="#000000"/>
<path d="M360,0 L370,0 L370,10 L360,10 Z" fill="#000000"/>
<path d="M380,0 L390,0 L390,10 L380,10 Z" fill="#000000"/>
<path d="M400,0 L410,0 L410,10 L400,10 Z" fill="#000000"/>
<path d="M420,0 L430,0 L430,10 L420,10 Z" fill="#000000"/>
<path d="M440,0 L450,0 L450,10 L440,10 Z" fill="#000000"/>
<path d="M460,0 L470,0 L470,10 L460,10 Z" fill="#000000"/>
<path d="M480,0 L490,0 L490,10 L480,10 Z" fill="#000000"/>
<path d="M500,0 L510,0 L510,10 L500,10 Z" fill="#000000"/>
<path d="M520,0 L530,0 L530,10 L520,10 Z" fill="#000000"/>
<path d="M540,0 L550,0 L550,10 L540,10 Z" fill="#000000"/>
<path d="M560,0 L570,0 L570,10 L560,10 Z" fill="#000000"/>
<path d="M580,0 L590,0 L590,10 L580,10 Z" fill="#000000"/>
<path d="M600,0 L610,0 L610,10 L600,10 Z" fill="#000000"/>
<path d="M620,0 L630,0 L630,10 L620,10 Z" fill="#000000"/>
<path d="M640,0 L650,0 L650,10 L640,10 Z" fill="#000000"/>
<path d="M660,0 L670,0 L670,10 L660,10 Z" fill="#000000"/>
<path d="M680,0 L690,0 L690,10 L680,10 Z" fill="#000000"/>
<path d="M700,0 L710,0 L710,10 L700,10 Z" fill="#000000"/>
<path d="M720,0 L730,0 L730,10 L720,10 Z" fill="#000000"/>
<path d="M740,0 L750,0 L750,10 L740,10 Z" fill="#000000"/>
<path d="M760,0 L770,0 L770,10 L760,10 Z" fill="#000000"/>
<path d="M780,0 L790,0 L790,10 L780,10 Z" fill="#000000"/>
<path d="M800,0 L810,0 L810,10 L800,10 Z" fill="#000000"/>
<path d="M820,0 L830,0 L830,10 L820,10 Z" fill="#000000"/>
<path d="M840,0 L850,0 L850,10 L840,10 Z" fill="#000000"/>
<path d="M860,0 L870,0 L870,10 L860,10 Z" fill="#000000"/>
<path d="M880,0 L890,0 L890,10 L880,10 Z" fill="#000000"/>
<path d="M900,0 L910,0 L910,10 L900,10 Z" fill="#000000"/>
<path d="M920,0 L930,0 L930,10 L920,10 Z" fill="#000000"/>
<path d="M940,0 L950,0 L950,10 L940,10 Z" fill="#000000"/>
<path d="M960,0 L970,0 L970,10 L960,10 Z" fill="#000000"/>
<path d="M980,0 L990,0 L990,10 L980,10 Z" fill="#000000"/>
<path d="M0,20 L10,20 L10,30 L0,30 Z" fill="#000000"/>
<path d="M20,20 L30,20 L30,30 L20,30 Z" fill="#000000"/>
<path d="M40,20 L50,20 L50,30 L40,30 Z" fill="#000000"/>
<path d="M60,20 L70,20 L70,30 L60,30 Z" fill="#000000"/>
<path d="M80,20 L90,20 L90,30 L80,30 Z" fill="#000000"/>
<path d="M100,20 L110,20 L110,30 L100,30 Z" fill="#000000"/>
<path d="M120,20 L130,20 L130,30 L120,30 Z" fill="#000000"/>
<path d="M140,20 L150,20 L150,30 L140,30 Z" fill="#000000"/>
<path d="M160,20 L170,20 L170,30 L160,30 Z" fill="#000000"/>
<path d="M180,20 L190,20 L190,30 L180,30 Z" fill="#000000"/>
<path d="M200,20 L210,20 L210,30 L200,30 Z" fill="#000000"/>
<path d="M220,20 L230,20 L230,30 L220,30 Z" fill="#000000"/>
<path d="M240,20 L250,20 L250,30 L240,30 Z" fill="#000000"/>
<path d="M260,20 L270,20 L270,30 L260,30 Z" fill="#000000"/>
<path d="M280,20 L290,20 L290,30 L280,30 Z" fill="#000000"/>
<path d="M300,20 L310,20 L310,30 L300,30 Z" fill="#000000"/>
<path d="M320,20 L330,20 L330,30 L320,30 Z" fill="#000000"/>
<path d="M340,20 L350,20 L350,30 L340,30 Z" fill="#000000"/>
<path d="M360,20 L370,20 L370,30 L360,30 Z" fill="#000000"/>
<path d="M380,20 L390,20 L390,30 L380,30 Z" fill="#000000"/>
<path d="M400,20 L410,20 L410,30 L400,30 Z" fill="#000000"/>
<path d="M420,20 L430,20 L430,30 L420,30 Z" fill="#000000"/>
<path d="M440,20 L450,20 L450,30 L440,30 Z" fill="#000000"/>
<path d="M460,20 L470,20 L470,30 L460,30 Z" fill="#000000"/>
<path d="M480,20 L490,20 L490,30 L480,30 Z" fill="#000000"/>
<path d="M500,20 L510,20 L510,30 L500,30 Z" fill="#000000"/>
<path d="M520,20 L530,20 L530,30 L520,30 Z" fill="#000000"/>
<path d="M540,20 L550,20 L550,30 L540,30 Z" fill="#000000"/>
<path d="M560,20 L570,20 L570,30 L560,30 Z" fill="#000000"/>
<path d="M580,20 L590,20 L590,30 L580,30 Z" fill="#000000"/>
<path d="M600,20 L610,20 L610,30 L600,30 Z" fill="#000000"/>
<path d="M620,20 L630,20 L630,30 L620,30 Z" fill="#000000"/>
<path d="M640,20 L650,20 L650,30 L640,30 Z" fill="#000000"/>
<path d="M660,20 L670,20 L670,30 L660,30 Z" fill="#000000"/>
<path d="M680,20 L690,20 L690,30 L680,30 Z" fill="#000000"/>
<path d="M700,20 L710,20 L710,30 L700,30 Z" fill="#000000"/>
<path d="M720,20 L730,20 L730,30 L720,30 Z" fill="#000000"/>
<path d="M740,20 L750,20 L750,30 L740,30 Z" fill="#000000"/>
<path d="M760,20 L770,20 L770,30 L760,30 Z" fill="#000000"/>
<path d="M780,20 L790,20 L790,30 L780,30 Z" fill="#000000"/>
<path d="M800,20 L810,20 L810,30 L800,30 Z" fill="#000000"/>
<path d="M820,20 L830,20 L830,30 L820,30 Z" fill="#000000"/>
<path d="M840,20 L850,20 L850,30 L840,30 Z" fill="#000000"/>
<path d="M860,20 L870,20 L870,30 L860,30 Z" fill="#000000"/>
<path d="M880,20 L890,20 L890,30 L880,30 Z" fill="#000000"/>
<path d="M900,20 L910,20 L910,30 L900,30 Z" fill="#000000"/>
<path d="M920,20 L930,20 L930,30 L920,30 Z" fill="#000000"/>
<path d="M940,20 L950,20 L950,30 L940,30 Z" fill="#000000"/>
<path d="M960,20 L970,20 L970,30 L960,30 Z" fill="#000000"/>
<path d="M980,20 L990,20 L990,30 L980,30 Z" fill="#000000"/>
  </g>
</svg>