<?xml version="1.0" encoding="UTF-8"?>
<svg width="1000" height="1000" viewBox="0 0 1000 1000" xmlns="http://www.w3.org/2000/svg">
  <g id="test-paths">
<path d="M0,0 L10,0 L10,10 L0,10 Z" fill="#000000"/>
<path d="M20,0 L30,0 L30,10 L20,10 Z" fill="#000000"/>
<path d="M40,0 L50,0 L50,10 L40,10 Z" fill="#000000"/>
<path d="M60,0 L70,0 L70,10 L60,10 Z" fill="#000000"/>
<path d="M80,0 L90,0 L90,10 L80,10 Z" fill="#000000"/>
<path d="M100,0 L110,0 L110,10 L100,10 Z" fill="#000000"/>
<path d="M120,0 L130,0 L130,10 L120,10 Z" fill="#000000"/>
<path d="M140,0 L150,0 L150,10 L140,10 Z" fill="#000000"/>
<path d="M160,0 L170,0 L170,10 L160,10 Z" fill="#000000"/>
<path d="M180,0 L190,0 L190,10 L180,10 Z" fill="#000000"/>
<path d="M200,0 L210,0 L210,10 L200,10 Z" fill="#000000"/>
<path d="M220,0 L230,0 L230,10 L220,10 Z" fill="#000000"/>
<path d="M240,0 L250,0 L250,10 L240,10 Z" fill="#000000"/>
<path d="M260,0 L270,0 L270,10 L260,10 Z" fill="#000000"/>
<path d="M280,0 L290,0 L290,10 L280,10 Z" fill="#000000"/>
<path d="M300,0 L310,0 L310,10 L300,10 Z" fill="#000000"/>
<path d="M320,0 L330,0 L330,10 L320,10 Z" fill="#000000"/>
<path d="M340,0 L350,0 L350,10 L340,10 Z" fill="#000000"/>
<path d="M360,0 L370,0 L370,10 L360,10 Z" fill="#000000"/>
<path d="M380,0 L390,0 L390,10 L380,10 Z" fill="#000000"/>
<path d="M400,0 L410,0 L410,10 L400,10 Z" fill="#000000"/>
<path d="M420,0 L430,0 L430,10 L420,10 Z" fill="#000000"/>
<path d="M440,0 L450,0 L450,10 L440,10 Z" fill="#000000"/>
<path d="M460,0 L470,0 L470,10 L460,10 Z" fill="#000000"/>
<path d="M480,0 L490,0 L490,10 L480,10 Z" fill="#000000"/>
<path d="M500,0 L510,0 L510,10 L500,10 Z" fill="#000000"/>
<path d="M520,0 L530,0 L530,10 L520,10 Z" fill="#000000"/>
<path d="M540,0 L550,0 L550,10 L540,10 Z" fill="#000000"/>
<path d="M560,0 L570,0 L570,10 L560,10 Z" fill="#000000"/>
<path d="M580,0 L590,0 L590,10 L580,10 Z" fill="#000000"/>
<path d="M600,0 L610,0 L610,10 L600,10 Z" fill="#000000"/>
<path d="M620,0 L630,0 L630,10 L620,10 Z" fill="#000000"/>
<path d="M640,0 L650,0 L650,10 L640,10 Z" fill="#000000"/>
<path d="M660,0 L670,0 L670,10 L660,10 Z" fill="#000000"/>
<path d="M680,0 L690,0 L690,10 L680,10 Z" fill="#000000"/>
<path d="M700,0 L710,0 L710,10 L700,10 Z" fill="#000000"/>
<path d="M720,0 L730,0 L730,10 L720,10 Z" fill="#000000"/>
<path d="M740,0 L750,0 L750,10 L740,10 Z" fill="#000000"/>
<path d="M760,0 L770,0 L770,10 L760,10 Z" fill="#000000"/>
<path d="M780,0 L790,0 L790,10 L780,10 Z" fill="#000000"/>
<path d="M800,0 L810,0 L810,10 L800,10 Z" fill="#000000"/>
<path d="M820,0 L830,0 L830,10 L820,10 Z" fill="#000000"/>
<path d="M840,0 L850,0 L850,10 L840,10 Z" fill="#000000"/>
<path d="M860,0 L870,0 L870,10 L860,10 Z" fill="#000000"/>
<path d="M880,0 L890,0 L890,10 L880,10 Z" fill="#000000"/>
<path d="M900,0 L910,0 L910,10 L900,10 Z" fill="#000000"/>
<path d="M920,0 L930,0 L930,10 L920,10 Z" fill="#000000"/>
<path d="M940,0 L950,0 L950,10 L940,10 Z" fill="#000000"/>
<path d="M960,0 L970,0 L970,10 L960,10 Z" fill="#000000"/>
<path d="M980,0 L990,0 L990,10 L980,10 Z" fill="#000000"/>
<path d="M0,20 L10,20 L10,30 L0,30 Z" fill="#000000"/>
<path d="M20,20 L30,20 L30,30 L20,30 Z" fill="#000000"/>
<path d="M40,20 L50,20 L50,30 L40,30 Z" fill="#000000"/>
<path d="M60,20 L70,20 L70,30 L60,30 Z" fill="#000000"/>
<path d="M80,20 L90,20 L90,30 L80,30 Z" fill="#000000"/>
<path d="M100,20 L110,20 L110,30 L100,30 Z" fill="#000000"/>
<path d="M120,20 L130,20 L130,30 L120,30 Z" fill="#000000"/>
<path d="M140,20 L150,20 L150,30 L140,30 Z" fill="#000000"/>
<path d="M160,20 L170,20 L170,30 L160,30 Z" fill="#000000"/>
<path d="M180,20 L190,20 L190,30 L180,30 Z" fill="#000000"/>
<path d="M200,20 L210,20 L210,30 L200,30 Z" fill="#000000"/>
<path d="M220,20 L230,20 L230,30 L220,30 Z" fill="#000000"/>
<path d="M240,20 L250,20 L250,30 L240,30 Z" fill="#000000"/>
<path d="M260,20 L270,20 L270,30 L260,30 Z" fill="#000000"/>
<path d="M280,20 L290,20 L290,30 L280,30 Z" fill="#000000"/>
<path d="M300,20 L310,20 L310,30 L300,30 Z" fill="#000000"/>
<path d="M320,20 L330,20 L330,30 L320,30 Z" fill="#000000"/>
<path d="M340,20 L350,20 L350,30 L340,30 Z" fill="#000000"/>
<path d="M360,20 L370,20 L370,30 L360,30 Z" fill="#000000"/>
<path d="M380,20 L390,20 L390,30 L380,30 Z" fill="#000000"/>
<path d="M400,20 L410,20 L410,30 L400,30 Z" fill="#000000"/>
<path d="M420,20 L430,20 L430,30 L420,30 Z" fill="#000000"/>
<path d="M440,20 L450,20 L450,30 L440,30 Z" fill="#000000"/>
<path d="M460,20 L470,20 L470,30 L460,30 Z" fill="#000000"/>
<path d="M480,20 L490,20 L490,30 L480,30 Z" fill="#000000"/>
<path d="M500,20 L510,20 L510,30 L500,30 Z" fill="#000000"/>
<path d="M520,20 L530,20 L530,30 L520,30 Z" fill="#000000"/>
<path d="M540,20 L550,20 L550,30 L540,30 Z" fill="#000000"/>
<path d="M560,20 L570,20 L570,30 L560,30 Z" fill="#000000"/>
<path d="M580,20 L590,20 L590,30 L580,30 Z" fill="#000000"/>
<path d="M600,20 L610,20 L610,30 L600,30 Z" fill="#000000"/>
<path d="M620,20 L630,20 L630,30 L620,30 Z" fill="#000000"/>
<path d="M640,20 L650,20 L650,30 L640,30 Z" fill="#000000"/>
<path d="M660,20 L670,20 L670,30 L660,30 Z" fill="#000000"/>
<path d="M680,20 L690,20 L690,30 L680,30 Z" fill="#000000"/>
<path d="M700,20 L710,20 L710,30 L700,30 Z" fill="#000000"/>
<path d="M720,20 L730,20 L730,30 L720,30 Z" fill="#000000"/>
<path d="M740,20 L750,20 L750,30 L740,30 Z" fill="#000000"/>
<path d="M760,20 L770,20 L770,30 L760,30 Z" fill="#000000"/>
<path d="M780,20 L790,20 L790,30 L780,30 Z" fill="#000000"/>
<path d="M800,20 L810,20 L810,30 L800,30 Z" fill="#000000"/>
<path d="M820,20 L830,20 L830,30 L820,30 Z" fill="#000000"/>
<path d="M840,20 L850,20 L850,30 L840,30 Z" fill="#000000"/>
<path d="M860,20 L870,20 L870,30 L860,30 Z" fill="#000000"/>
<path d="M880,20 L890,20 L890,30 L880,30 Z" fill="#000000"/>
<path d="M900,20 L910,20 L910,30 L900,30 Z" fill="#000000"/>
<path d="M920,20 L930,20 L930,30 L920,30 Z" fill="#000000"/>
<path d="M940,20 L950,20 L950,30 L940,30 Z" fill="#000000"/>
<path d="M960,20 L970,20 L970,30 L960,30 Z" fill="#000000"/>
<path d="M980,20 L990,20 L990,30 L980,30 Z" fill="#000000"/>
<path d="M0,40 L10,40 L10,50 L0,50 Z" fill="#000000"/>
<path d="M20,40 L30,40 L30,50 L20,50 Z" fill="#000000"/>
<path d="M40,40 L50,40 L50,50 L40,50 Z" fill="#000000"/>
<path d="M60,40 L70,40 L70,50 L60,50 Z" fill="#000000"/>
<path d="M80,40 L90,40 L90,50 L80,50 Z" fill="#000000"/>
<path d="M100,40 L110,40 L110,50 L100,50 Z" fill="#000000"/>
<path d="M120,40 L130,40 L130,50 L120,50 Z" fill="#000000"/>
<path d="M140,40 L150,40 L150,50 L140,50 Z" fill="#000000"/>
<path d="M160,40 L170,40 L170,50 L160,50 Z" fill="#000000"/>
<path d="M180,40 L190,40 L190,50 L180,50 Z" fill="#000000"/>
<path d="M200,40 L210,40 L210,50 L200,50 Z" fill="#000000"/>
<path d="M220,40 L230,40 L230,50 L220,50 Z" fill="#000000"/>
<path d="M240,40 L250,40 L250,50 L240,50 Z" fill="#000000"/>
<path d="M260,40 L270,40 L270,50 L260,50 Z" fill="#000000"/>
<path d="M280,40 L290,40 L290,50 L280,50 Z" fill="#000000"/>
<path d="M300,40 L310,40 L310,50 L300,50 Z" fill="#000000"/>
<path d="M320,40 L330,40 L330,50 L320,50 Z" fill="#000000"/>
<path d="M340,40 L350,40 L350,50 L340,50 Z" fill="#000000"/>
<path d="M360,40 L370,40 L370,50 L360,50 Z" fill="#000000"/>
<path d="M380,40 L390,40 L390,50 L380,50 Z" fill="#000000"/>
<path d="M400,40 L410,40 L410,50 L400,50 Z" fill="#000000"/>
<path d="M420,40 L430,40 L430,50 L420,50 Z" fill="#000000"/>
<path d="M440,40 L450,40 L450,50 L440,50 Z" fill="#000000"/>
<path d="M460,40 L470,40 L470,50 L460,50 Z" fill="#000000"/>
<path d="M480,40 L490,40 L490,50 L480,50 Z" fill="#000000"/>
<path d="M500,40 L510,40 L510,50 L500,50 Z" fill="#000000"/>
<path d="M520,40 L530,40 L530,50 L520,50 Z" fill="#000000"/>
<path d="M540,40 L550,40 L550,50 L540,50 Z" fill="#000000"/>
<path d="M560,40 L570,40 L570,50 L560,50 Z" fill="#000000"/>
<path d="M580,40 L590,40 L590,50 L580,50 Z" fill="#000000"/>
<path d="M600,40 L610,40 L610,50 L600,50 Z" fill="#000000"/>
<path d="M620,40 L630,40 L630,50 L620,50 Z" fill="#000000"/>
<path d="M640,40 L650,40 L650,50 L640,50 Z" fill="#000000"/>
<path d="M660,40 L670,40 L670,50 L660,50 Z" fill="#000000"/>
<path d="M680,40 L690,40 L690,50 L680,50 Z" fill="#000000"/>
<path d="M700,40 L710,40 L710,50 L700,50 Z" fill="#000000"/>
<path d="M720,40 L730,40 L730,50 L720,50 Z" fill="#000000"/>
<path d="M740,40 L750,40 L750,50 L740,50 Z" fill="#000000"/>
<path d="M760,40 L770,40 L770,50 L760,50 Z" fill="#000000"/>
<path d="M780,40 L790,40 L790,50 L780,50 Z" fill="#000000"/>
<path d="M800,40 L810,40 L810,50 L800,50 Z" fill="#000000"/>
<path d="M820,40 L830,40 L830,50 L820,50 Z" fill="#000000"/>
<path d="M840,40 L850,40 L850,50 L840,50 Z" fill="#000000"/>
<path d="M860,40 L870,40 L870,50 L860,50 Z" fill="#000000"/>
<path d="M880,40 L890,40 L890,50 L880,50 Z" fill="#000000"/>
<path d="M900,40 L910,40 L910,50 L900,50 Z" fill="#000000"/>
<path d="M920,40 L930,40 L930,50 L920,50 Z" fill="#000000"/>
<path d="M940,40 L950,40 L950,50 L940,50 Z" fill="#000000"/>
<path d="M960,40 L970,40 L970,50 L960,50 Z" fill="#000000"/>
<path d="M980,40 L990,40 L990,50 L980,50 Z" fill="#000000"/>
<path d="M0,60 L10,60 L10,70 L0,70 Z" fill="#000000"/>
<path d="M20,60 L30,60 L30,70 L20,70 Z" fill="#000000"/>
<path d="M40,60 L50,60 L50,70 L40,70 Z" fill="#000000"/>
<path d="M60,60 L70,60 L70,70 L60,70 Z" fill="#000000"/>
<path d="M80,60 L90,60 L90,70 L80,70 Z" fill="#000000"/>
<path d="M100,60 L110,60 L110,70 L100,70 Z" fill="#000000"/>
<path d="M120,60 L130,60 L130,70 L120,70 Z" fill="#000000"/>
<path d="M140,60 L150,60 L150,70 L140,70 Z" fill="#000000"/>
<path d="M160,60 L170,60 L170,70 L160,70 Z" fill="#000000"/>
<path d="M180,60 L190,60 L190,70 L180,70 Z" fill="#000000"/>
<path d="M200,60 L210,60 L210,70 L200,70 Z" fill="#000000"/>
<path d="M220,60 L230,60 L230,70 L220,70 Z" fill="#000000"/>
<path d="M240,60 L250,60 L250,70 L240,70 Z" fill="#000000"/>
<path d="M260,60 L270,60 L270,70 L260,70 Z" fill="#000000"/>
<path d="M280,60 L290,60 L290,70 L280,70 Z" fill="#000000"/>
<path d="M300,60 L310,60 L310,70 L300,70 Z" fill="#000000"/>
<path d="M320,60 L330,60 L330,70 L320,70 Z" fill="#000000"/>
<path d="M340,60 L350,60 L350,70 L340,70 Z" fill="#000000"/>
<path d="M360,60 L370,60 L370,70 L360,70 Z" fill="#000000"/>
<path d="M380,60 L390,60 L390,70 L380,70 Z" fill="#000000"/>
<path d="M400,60 L410,60 L410,70 L400,70 Z" fill="#000000"/>
<path d="M420,60 L430,60 L430,70 L420,70 Z" fill="#000000"/>
<path d="M440,60 L450,60 L450,70 L440,70 Z" fill="#000000"/>
<path d="M460,60 L470,60 L470,70 L460,70 Z" fill="#000000"/>
<path d="M480,60 L490,60 L490,70 L480,70 Z" fill="#000000"/>
<path d="M500,60 L510,60 L510,70 L500,70 Z" fill="#000000"/>
<path d="M520,60 L530,60 L530,70 L520,70 Z" fill="#000000"/>
<path d="M540,60 L550,60 L550,70 L540,70 Z" fill="#000000"/>
<path d="M560,60 L570,60 L570,70 L560,70 Z" fill="#000000"/>
<path d="M580,60 L590,60 L590,70 L580,70 Z" fill="#000000"/>
<path d="M600,60 L610,60 L610,70 L600,70 Z" fill="#000000"/>
<path d="M620,60 L630,60 L630,70 L620,70 Z" fill="#000000"/>
<path d="M640,60 L650,60 L650,70 L640,70 Z" fill="#000000"/>
<path d="M660,60 L670,60 L670,70 L660,70 Z" fill="#000000"/>
<path d="M680,60 L690,60 L690,70 L680,70 Z" fill="#000000"/>
<path d="M700,60 L710,60 L710,70 L700,70 Z" fill="#000000"/>
<path d="M720,60 L730,60 L730,70 L720,70 Z" fill="#000000"/>
<path d="M740,60 L750,60 L750,70 L740,70 Z" fill="#000000"/>
<path d="M760,60 L770,60 L770,70 L760,70 Z" fill="#000000"/>
<path d="M780,60 L790,60 L790,70 L780,70 Z" fill="#000000"/>
<path d="M800,60 L810,60 L810,70 L800,70 Z" fill="#000000"/>
<path d="M820,60 L830,60 L830,70 L820,70 Z" fill="#000000"/>
<path d="M840,60 L850,60 L850,70 L840,70 Z" fill="#000000"/>
<path d="M860,60 L870,60 L870,70 L860,70 Z" fill="#000000"/>
<path d="M880,60 L890,60 L890,70 L880,70 Z" fill="#000000"/>
<path d="M900,60 L910,60 L910,70 L900,70 Z" fill="#000000"/>
<path d="M920,60 L930,60 L930,70 L920,70 Z" fill="#000000"/>
<path d="M940,60 L950,60 L950,70 L940,70 Z" fill="#000000"/>
<path d="M960,60 L970,60 L970,70 L960,70 Z" fill="#000000"/>
<path d="M980,60 L990,60 L990,70 L980,70 Z" fill="#000000"/>
<path d="M0,80 L10,80 L10,90 L0,90 Z" fill="#000000"/>
<path d="M20,80 L30,80 L30,90 L20,90 Z" fill="#000000"/>
<path d="M40,80 L50,80 L50,90 L40,90 Z" fill="#000000"/>
<path d="M60,80 L70,80 L70,90 L60,90 Z" fill="#000000"/>
<path d="M80,80 L90,80 L90,90 L80,90 Z" fill="#000000"/>
<path d="M100,80 L110,80 L110,90 L100,90 Z" fill="#000000"/>
<path d="M120,80 L130,80 L130,90 L120,90 Z" fill="#000000"/>
<path d="M140,80 L150,80 L150,90 L140,90 Z" fill="#000000"/>
<path d="M160,80 L170,80 L170,90 L160,90 Z" fill="#000000"/>
<path d="M180,80 L190,80 L190,90 L180,90 Z" fill="#000000"/>
<path d="M200,80 L210,80 L210,90 L200,90 Z" fill="#000000"/>
<path d="M220,80 L230,80 L230,90 L220,90 Z" fill="#000000"/>
<path d="M240,80 L250,80 L250,90 L240,90 Z" fill="#000000"/>
<path d="M260,80 L270,80 L270,90 L260,90 Z" fill="#000000"/>
<path d="M280,80 L290,80 L290,90 L280,90 Z" fill="#000000"/>
<path d="M300,80 L310,80 L310,90 L300,90 Z" fill="#000000"/>
<path d="M320,80 L330,80 L330,90 L320,90 Z" fill="#000000"/>
<path d="M340,80 L350,80 L350,90 L340,90 Z" fill="#000000"/>
<path d="M360,80 L370,80 L370,90 L360,90 Z" fill="#000000"/>
<path d="M380,80 L390,80 L390,90 L380,90 Z" fill="#000000"/>
<path d="M400,80 L410,80 L410,90 L400,90 Z" fill="#000000"/>
<path d="M420,80 L430,80 L430,90 L420,90 Z" fill="#000000"/>
<path d="M440,80 L450,80 L450,90 L440,90 Z" fill="#000000"/>
<path d="M460,80 L470,80 L470,90 L460,90 Z" fill="#000000"/>
<path d="M480,80 L490,80 L490,90 L480,90 Z" fill="#000000"/>
<path d="M500,80 L510,80 L510,90 L500,90 Z" fill="#000000"/>
<path d="M520,80 L530,80 L530,90 L520,90 Z" fill="#000000"/>
<path d="M540,80 L550,80 L550,90 L540,90 Z" fill="#000000"/>
<path d="M560,80 L570,80 L570,90 L560,90 Z" fill="#000000"/>
<path d="M580,80 L590,80 L590,90 L580,90 Z" fill="#000000"/>
<path d="M600,80 L610,80 L610,90 L600,90 Z" fill="#000000"/>
<path d="M620,80 L630,80 L630,90 L620,90 Z" fill="#000000"/>
<path d="M640,80 L650,80 L650,90 L640,90 Z" fill="#000000"/>
<path d="M660,80 L670,80 L670,90 L660,90 Z" fill="#000000"/>
<path d="M680,80 L690,80 L690,90 L680,90 Z" fill="#000000"/>
<path d="M700,80 L710,80 L710,90 L700,90 Z" fill="#000000"/>
<path d="M720,80 L730,80 L730,90 L720,90 Z" fill="#000000"/>
<path d="M740,80 L750,80 L750,90 L740,90 Z" fill="#000000"/>
<path d="M760,80 L770,80 L770,90 L760,90 Z" fill="#000000"/>
<path d="M780,80 L790,80 L790,90 L780,90 Z" fill="#000000"/>
<path d="M800,80 L810,80 L810,90 L800,90 Z" fill="#000000"/>
<path d="M820,80 L830,80 L830,90 L820,90 Z" fill="#000000"/>
<path d="M840,80 L850,80 L850,90 L840,90 Z" fill="#000000"/>
<path d="M860,80 L870,80 L870,90 L860,90 Z" fill="#000000"/>
<path d="M880,80 L890,80 L890,90 L880,90 Z" fill="#000000"/>
<path d="M900,80 L910,80 L910,90 L900,90 Z" fill="#000000"/>
<path d="M920,80 L930,80 L930,90 L920,90 Z" fill="#000000"/>
<path d="M940,80 L950,80 L950,90 L940,90 Z" fill="#000000"/>
<path d="M960,80 L970,80 L970,90 L960,90 Z" fill="#000000"/>
<path d="M980,80 L990,80 L990,90 L980,90 Z" fill="#000000"/>
<path d="M0,100 L10,100 L10,110 L0,110 Z" fill="#000000"/>
<path d="M20,100 L30,100 L30,110 L20,110 Z" fill="#000000"/>
<path d="M40,100 L50,100 L50,110 L40,110 Z" fill="#000000"/>
<path d="M60,100 L70,100 L70,110 L60,110 Z" fill="#000000"/>
<path d="M80,100 L90,100 L90,110 L80,110 Z" fill="#000000"/>
<path d="M100,100 L110,100 L110,110 L100,110 Z" fill="#000000"/>
<path d="M120,100 L130,100 L130,110 L120,110 Z" fill="#000000"/>
<path d="M140,100 L150,100 L150,110 L140,110 Z" fill="#000000"/>
<path d="M160,100 L170,100 L170,110 L160,110 Z" fill="#000000"/>
<path d="M180,100 L190,100 L190,110 L180,110 Z" fill="#000000"/>
<path d="M200,100 L210,100 L210,110 L200,110 Z" fill="#000000"/>
<path d="M220,100 L230,100 L230,110 L220,110 Z" fill="#000000"/>
<path d="M240,100 L250,100 L250,110 L240,110 Z" fill="#000000"/>
<path d="M260,100 L270,100 L270,110 L260,110 Z" fill="#000000"/>
<path d="M280,100 L290,100 L290,110 L280,110 Z" fill="#000000"/>
<path d="M300,100 L310,100 L310,110 L300,110 Z" fill="#000000"/>
<path d="M320,100 L330,100 L330,110 L320,110 Z" fill="#000000"/>
<path d="M340,100 L350,100 L350,110 L340,110 Z" fill="#000000"/>
<path d="M360,100 L370,100 L370,110 L360,110 Z" fill="#000000"/>
<path d="M380,100 L390,100 L390,110 L380,110 Z" fill="#000000"/>
<path d="M400,100 L410,100 L410,110 L400,110 Z" fill="#000000"/>
<path d="M420,100 L430,100 L430,110 L420,110 Z" fill="#000000"/>
<path d="M440,100 L450,100 L450,110 L440,110 Z" fill="#000000"/>
<path d="M460,100 L470,100 L470,110 L460,110 Z" fill="#000000"/>
<path d="M480,100 L490,100 L490,110 L480,110 Z" fill="#000000"/>
<path d="M500,100 L510,100 L510,110 L500,110 Z" fill="#000000"/>
<path d="M520,100 L530,100 L530,110 L520,110 Z" fill="#000000"/>
<path d="M540,100 L550,100 L550,110 L540,110 Z" fill="#000000"/>
<path d="M560,100 L570,100 L570,110 L560,110 Z" fill="#000000"/>
<path d="M580,100 L590,100 L590,110 L580,110 Z" fill="#000000"/>
<path d="M600,100 L610,100 L610,110 L600,110 Z" fill="#000000"/>
<path d="M620,100 L630,100 L630,110 L620,110 Z" fill="#000000"/>
<path d="M640,100 L650,100 L650,110 L640,110 Z" fill="#000000"/>
<path d="M660,100 L670,100 L670,110 L660,110 Z" fill="#000000"/>
<path d="M680,100 L690,100 L690,110 L680,110 Z" fill="#000000"/>
<path d="M700,100 L710,100 L710,110 L700,110 Z" fill="#000000"/>
<path d="M720,100 L730,100 L730,110 L720,110 Z" fill="#000000"/>
<path d="M740,100 L750,100 L750,110 L740,110 Z" fill="#000000"/>
<path d="M760,100 L770,100 L770,110 L760,110 Z" fill="#000000"/>
<path d="M780,100 L790,100 L790,110 L780,110 Z" fill="#000000"/>
<path d="M800,100 L810,100 L810,110 L800,110 Z" fill="#000000"/>
<path d="M820,100 L830,100 L830,110 L820,110 Z" fill="#000000"/>
<path d="M840,100 L850,100 L850,110 L840,110 Z" fill="#000000"/>
<path d="M860,100 L870,100 L870,110 L860,110 Z" fill="#000000"/>
<path d="M880,100 L890,100 L890,110 L880,110 Z" fill="#000000"/>
<path d="M900,100 L910,100 L910,110 L900,110 Z" fill="#000000"/>
<path d="M920,100 L930,100 L930,110 L920,110 Z" fill="#000000"/>
<path d="M940,100 L950,100 L950,110 L940,110 Z" fill="#000000"/>
<path d="M960,100 L970,100 L970,110 L960,110 Z" fill="#000000"/>
<path d="M980,100 L990,100 L990,110 L980,110 Z" fill="#000000"/>
<path d="M0,120 L10,120 L10,130 L0,130 Z" fill="#000000"/>
<path d="M20,120 L30,120 L30,130 L20,130 Z" fill="#000000"/>
<path d="M40,120 L50,120 L50,130 L40,130 Z" fill="#000000"/>
<path d="M60,120 L70,120 L70,130 L60,130 Z" fill="#000000"/>
<path d="M80,120 L90,120 L90,130 L80,130 Z" fill="#000000"/>
<path d="M100,120 L110,120 L110,130 L100,130 Z" fill="#000000"/>
<path d="M120,120 L130,120 L130,130 L120,130 Z" fill="#000000"/>
<path d="M140,120 L150,120 L150,130 L140,130 Z" fill="#000000"/>
<path d="M160,120 L170,120 L170,130 L160,130 Z" fill="#000000"/>
<path d="M180,120 L190,120 L190,130 L180,130 Z" fill="#000000"/>
<path d="M200,120 L210,120 L210,130 L200,130 Z" fill="#000000"/>
<path d="M220,120 L230,120 L230,130 L220,130 Z" fill="#000000"/>
<path d="M240,120 L250,120 L250,130 L240,130 Z" fill="#000000"/>
<path d="M260,120 L270,120 L270,130 L260,130 Z" fill="#000000"/>
<path d="M280,120 L290,120 L290,130 L280,130 Z" fill="#000000"/>
<path d="M300,120 L310,120 L310,130 L300,130 Z" fill="#000000"/>
<path d="M320,120 L330,120 L330,130 L320,130 Z" fill="#000000"/>
<path d="M340,120 L350,120 L350,130 L340,130 Z" fill="#000000"/>
<path d="M360,120 L370,120 L370,130 L360,130 Z" fill="#000000"/>
<path d="M380,120 L390,120 L390,130 L380,130 Z" fill="#000000"/>
<path d="M400,120 L410,120 L410,130 L400,130 Z" fill="#000000"/>
<path d="M420,120 L430,120 L430,130 L420,130 Z" fill="#000000"/>
<path d="M440,120 L450,120 L450,130 L440,130 Z" fill="#000000"/>
<path d="M460,120 L470,120 L470,130 L460,130 Z" fill="#000000"/>
<path d="M480,120 L490,120 L490,130 L480,130 Z" fill="#000000"/>
<path d="M500,120 L510,120 L510,130 L500,130 Z" fill="#000000"/>
<path d="M520,120 L530,120 L530,130 L520,130 Z" fill="#000000"/>
<path d="M540,120 L550,120 L550,130 L540,130 Z" fill="#000000"/>
<path d="M560,120 L570,120 L570,130 L560,130 Z" fill="#000000"/>
<path d="M580,120 L590,120 L590,130 L580,130 Z" fill="#000000"/>
<path d="M600,120 L610,120 L610,130 L600,130 Z" fill="#000000"/>
<path d="M620,120 L630,120 L630,130 L620,130 Z" fill="#000000"/>
<path d="M640,120 L650,120 L650,130 L640,130 Z" fill="#000000"/>
<path d="M660,120 L670,120 L670,130 L660,130 Z" fill="#000000"/>
<path d="M680,120 L690,120 L690,130 L680,130 Z" fill="#000000"/>
<path d="M700,120 L710,120 L710,130 L700,130 Z" fill="#000000"/>
<path d="M720,120 L730,120 L730,130 L720,130 Z" fill="#000000"/>
<path d="M740,120 L750,120 L750,130 L740,130 Z" fill="#000000"/>
<path d="M760,120 L770,120 L770,130 L760,130 Z" fill="#000000"/>
<path d="M780,120 L790,120 L790,130 L780,130 Z" fill="#000000"/>
<path d="M800,120 L810,120 L810,130 L800,130 Z" fill="#000000"/>
<path d="M820,120 L830,120 L830,130 L820,130 Z" fill="#000000"/>
<path d="M840,120 L850,120 L850,130 L840,130 Z" fill="#000000"/>
<path d="M860,120 L870,120 L870,130 L860,130 Z" fill="#000000"/>
<path d="M880,120 L890,120 L890,130 L880,130 Z" fill="#000000"/>
<path d="M900,120 L910,120 L910,130 L900,130 Z" fill="#000000"/>
<path d="M920,120 L930,120 L930,130 L920,130 Z" fill="#000000"/>
<path d="M940,120 L950,120 L950,130 L940,130 Z" fill="#000000"/>
<path d="M960,120 L970,120 L970,130 L960,130 Z" fill="#000000"/>
<path d="M980,120 L990,120 L990,130 L980,130 Z" fill="#000000"/>
<path d="M0,140 L10,140 L10,150 L0,150 Z" fill="#000000"/>
<path d="M20,140 L30,140 L30,150 L20,150 Z" fill="#000000"/>
<path d="M40,140 L50,140 L50,150 L40,150 Z" fill="#000000"/>
<path d="M60,140 L70,140 L70,150 L60,150 Z" fill="#000000"/>
<path d="M80,140 L90,140 L90,150 L80,150 Z" fill="#000000"/>
<path d="M100,140 L110,140 L110,150 L100,150 Z" fill="#000000"/>
<path d="M120,140 L130,140 L130,150 L120,150 Z" fill="#000000"/>
<path d="M140,140 L150,140 L150,150 L140,150 Z" fill="#000000"/>
<path d="M160,140 L170,140 L170,150 L160,150 Z" fill="#000000"/>
<path d="M180,140 L190,140 L190,150 L180,150 Z" fill="#000000"/>
<path d="M200,140 L210,140 L210,150 L200,150 Z" fill="#000000"/>
<path d="M220,140 L230,140 L230,150 L220,150 Z" fill="#000000"/>
<path d="M240,140 L250,140 L250,150 L240,150 Z" fill="#000000"/>
<path d="M260,140 L270,140 L270,150 L260,150 Z" fill="#000000"/>
<path d="M280,140 L290,140 L290,150 L280,150 Z" fill="#000000"/>
<path d="M300,140 L310,140 L310,150 L300,150 Z" fill="#000000"/>
<path d="M320,140 L330,140 L330,150 L320,150 Z" fill="#000000"/>
<path d="M340,140 L350,140 L350,150 L340,150 Z" fill="#000000"/>
<path d="M360,140 L370,140 L370,150 L360,150 Z" fill="#000000"/>
<path d="M380,140 L390,140 L390,150 L380,150 Z" fill="#000000"/>
<path d="M400,140 L410,140 L410,150 L400,150 Z" fill="#000000"/>
<path d="M420,140 L430,140 L430,150 L420,150 Z" fill="#000000"/>
<path d="M440,140 L450,140 L450,150 L440,150 Z" fill="#000000"/>
<path d="M460,140 L470,140 L470,150 L460,150 Z" fill="#000000"/>
<path d="M480,140 L490,140 L490,150 L480,150 Z" fill="#000000"/>
<path d="M500,140 L510,140 L510,150 L500,150 Z" fill="#000000"/>
<path d="M520,140 L530,140 L530,150 L520,150 Z" fill="#000000"/>
<path d="M540,140 L550,140 L550,150 L540,150 Z" fill="#000000"/>
<path d="M560,140 L570,140 L570,150 L560,150 Z" fill="#000000"/>
<path d="M580,140 L590,140 L590,150 L580,150 Z" fill="#000000"/>
<path d="M600,140 L610,140 L610,150 L600,150 Z" fill="#000000"/>
<path d="M620,140 L630,140 L630,150 L620,150 Z" fill="#000000"/>
<path d="M640,140 L650,140 L650,150 L640,150 Z" fill="#000000"/>
<path d="M660,140 L670,140 L670,150 L660,150 Z" fill="#000000"/>
<path d="M680,140 L690,140 L690,150 L680,150 Z" fill="#000000"/>
<path d="M700,140 L710,140 L710,150 L700,150 Z" fill="#000000"/>
<path d="M720,140 L730,140 L730,150 L720,150 Z" fill="#000000"/>
<path d="M740,140 L750,140 L750,150 L740,150 Z" fill="#000000"/>
<path d="M760,140 L770,140 L770,150 L760,150 Z" fill="#000000"/>
<path d="M780,140 L790,140 L790,150 L780,150 Z" fill="#000000"/>
<path d="M800,140 L810,140 L810,150 L800,150 Z" fill="#000000"/>
<path d="M820,140 L830,140 L830,150 L820,150 Z" fill="#000000"/>
<path d="M840,140 L850,140 L850,150 L840,150 Z" fill="#000000"/>
<path d="M860,140 L870,140 L870,150 L860,150 Z" fill="#000000"/>
<path d="M880,140 L890,140 L890,150 L880,150 Z" fill="#000000"/>
<path d="M900,140 L910,140 L910,150 L900,150 Z" fill="#000000"/>
<path d="M920,140 L930,140 L930,150 L920,150 Z" fill="#000000"/>
<path d="M940,140 L950,140 L950,150 L940,150 Z" fill="#000000"/>
<path d="M960,140 L970,140 L970,150 L960,150 Z" fill="#000000"/>
<path d="M980,140 L990,140 L990,150 L980,150 Z" fill="#000000"/>
<path d="M0,160 L10,160 L10,170 L0,170 Z" fill="#000000"/>
<path d="M20,160 L30,160 L30,170 L20,170 Z" fill="#000000"/>
<path d="M40,160 L50,160 L50,170 L40,170 Z" fill="#000000"/>
<path d="M60,160 L70,160 L70,170 L60,170 Z" fill="#000000"/>
<path d="M80,160 L90,160 L90,170 L80,170 Z" fill="#000000"/>
<path d="M100,160 L110,160 L110,170 L100,170 Z" fill="#000000"/>
<path d="M120,160 L130,160 L130,170 L120,170 Z" fill="#000000"/>
<path d="M140,160 L150,160 L150,170 L140,170 Z" fill="#000000"/>
<path d="M160,160 L170,160 L170,170 L160,170 Z" fill="#000000"/>
<path d="M180,160 L190,160 L190,170 L180,170 Z" fill="#000000"/>
<path d="M200,160 L210,160 L210,170 L200,170 Z" fill="#000000"/>
<path d="M220,160 L230,160 L230,170 L220,170 Z" fill="#000000"/>
<path d="M240,160 L250,160 L250,170 L240,170 Z" fill="#000000"/>
<path d="M260,160 L270,160 L270,170 L260,170 Z" fill="#000000"/>
<path d="M280,160 L290,160 L290,170 L280,170 Z" fill="#000000"/>
<path d="M300,160 L310,160 L310,170 L300,170 Z" fill="#000000"/>
<path d="M320,160 L330,160 L330,170 L320,170 Z" fill="#000000"/>
<path d="M340,160 L350,160 L350,170 L340,170 Z" fill="#000000"/>
<path d="M360,160 L370,160 L370,170 L360,170 Z" fill="#000000"/>
<path d="M380,160 L390,160 L390,170 L380,170 Z" fill="#000000"/>
<path d="M400,160 L410,160 L410,170 L400,170 Z" fill="#000000"/>
<path d="M420,160 L430,160 L430,170 L420,170 Z" fill="#000000"/>
<path d="M440,160 L450,160 L450,170 L440,170 Z" fill="#000000"/>
<path d="M460,160 L470,160 L470,170 L460,170 Z" fill="#000000"/>
<path d="M480,160 L490,160 L490,170 L480,170 Z" fill="#000000"/>
<path d="M500,160 L510,160 L510,170 L500,170 Z" fill="#000000"/>
<path d="M520,160 L530,160 L530,170 L520,170 Z" fill="#000000"/>
<path d="M540,160 L550,160 L550,170 L540,170 Z" fill="#000000"/>
<path d="M560,160 L570,160 L570,170 L560,170 Z" fill="#000000"/>
<path d="M580,160 L590,160 L590,170 L580,170 Z" fill="#000000"/>
<path d="M600,160 L610,160 L610,170 L600,170 Z" fill="#000000"/>
<path d="M620,160 L630,160 L630,170 L620,170 Z" fill="#000000"/>
<path d="M640,160 L650,160 L650,170 L640,170 Z" fill="#000000"/>
<path d="M660,160 L670,160 L670,170 L660,170 Z" fill="#000000"/>
<path d="M680,160 L690,160 L690,170 L680,170 Z" fill="#000000"/>
<path d="M700,160 L710,160 L710,170 L700,170 Z" fill="#000000"/>
<path d="M720,160 L730,160 L730,170 L720,170 Z" fill="#000000"/>
<path d="M740,160 L750,160 L750,170 L740,170 Z" fill="#000000"/>
<path d="M760,160 L770,160 L770,170 L760,170 Z" fill="#000000"/>
<path d="M780,160 L790,160 L790,170 L780,170 Z" fill="#000000"/>
<path d="M800,160 L810,160 L810,170 L800,170 Z" fill="#000000"/>
<path d="M820,160 L830,160 L830,170 L820,170 Z" fill="#000000"/>
<path d="M840,160 L850,160 L850,170 L840,170 Z" fill="#000000"/>
<path d="M860,160 L870,160 L870,170 L860,170 Z" fill="#000000"/>
<path d="M880,160 L890,160 L890,170 L880,170 Z" fill="#000000"/>
<path d="M900,160 L910,160 L910,170 L900,170 Z" fill="#000000"/>
<path d="M920,160 L930,160 L930,170 L920,170 Z" fill="#000000"/>
<path d="M940,160 L950,160 L950,170 L940,170 Z" fill="#000000"/>
<path d="M960,160 L970,160 L970,170 L960,170 Z" fill="#000000"/>
<path d="M980,160 L990,160 L990,170 L980,170 Z" fill="#000000"/>
<path d="M0,180 L10,180 L10,190 L0,190 Z" fill="#000000"/>
<path d="M20,180 L30,180 L30,190 L20,190 Z" fill="#000000"/>
<path d="M40,180 L50,180 L50,190 L40,190 Z" fill="#000000"/>
<path d="M60,180 L70,180 L70,190 L60,190 Z" fill="#000000"/>
<path d="M80,180 L90,180 L90,190 L80,190 Z" fill="#000000"/>
<path d="M100,180 L110,180 L110,190 L100,190 Z" fill="#000000"/>
<path d="M120,180 L130,180 L130,190 L120,190 Z" fill="#000000"/>
<path d="M140,180 L150,180 L150,190 L140,190 Z" fill="#000000"/>
<path d="M160,180 L170,180 L170,190 L160,190 Z" fill="#000000"/>
<path d="M180,180 L190,180 L190,190 L180,190 Z" fill="#000000"/>
<path d="M200,180 L210,180 L210,190 L200,190 Z" fill="#000000"/>
<path d="M220,180 L230,180 L230,190 L220,190 Z" fill="#000000"/>
<path d="M240,180 L250,180 L250,190 L240,190 Z" fill="#000000"/>
<path d="M260,180 L270,180 L270,190 L260,190 Z" fill="#000000"/>
<path d="M280,180 L290,180 L290,190 L280,190 Z" fill="#000000"/>
<path d="M300,180 L310,180 L310,190 L300,190 Z" fill="#000000"/>
<path d="M320,180 L330,180 L330,190 L320,190 Z" fill="#000000"/>
<path d="M340,180 L350,180 L350,190 L340,190 Z" fill="#000000"/>
<path d="M360,180 L370,180 L370,190 L360,190 Z" fill="#000000"/>
<path d="M380,180 L390,180 L390,190 L380,190 Z" fill="#000000"/>
<path d="M400,180 L410,180 L410,190 L400,190 Z" fill="#000000"/>
<path d="M420,180 L430,180 L430,190 L420,190 Z" fill="#000000"/>
<path d="M440,180 L450,180 L450,190 L440,190 Z" fill="#000000"/>
<path d="M460,180 L470,180 L470,190 L460,190 Z" fill="#000000"/>
<path d="M480,180 L490,180 L490,190 L480,190 Z" fill="#000000"/>
<path d="M500,180 L510,180 L510,190 L500,190 Z" fill="#000000"/>
<path d="M520,180 L530,180 L530,190 L520,190 Z" fill="#000000"/>
<path d="M540,180 L550,180 L550,190 L540,190 Z" fill="#000000"/>
<path d="M560,180 L570,180 L570,190 L560,190 Z" fill="#000000"/>
<path d="M580,180 L590,180 L590,190 L580,190 Z" fill="#000000"/>
<path d="M600,180 L610,180 L610,190 L600,190 Z" fill="#000000"/>
<path d="M620,180 L630,180 L630,190 L620,190 Z" fill="#000000"/>
<path d="M640,180 L650,180 L650,190 L640,190 Z" fill="#000000"/>
<path d="M660,180 L670,180 L670,190 L660,190 Z" fill="#000000"/>
<path d="M680,180 L690,180 L690,190 L680,190 Z" fill="#000000"/>
<path d="M700,180 L710,180 L710,190 L700,190 Z" fill="#000000"/>
<path d="M720,180 L730,180 L730,190 L720,190 Z" fill="#000000"/>
<path d="M740,180 L750,180 L750,190 L740,190 Z" fill="#000000"/>
<path d="M760,180 L770,180 L770,190 L760,190 Z" fill="#000000"/>
<path d="M780,180 L790,180 L790,190 L780,190 Z" fill="#000000"/>
<path d="M800,180 L810,180 L810,190 L800,190 Z" fill="#000000"/>
<path d="M820,180 L830,180 L830,190 L820,190 Z" fill="#000000"/>
<path d="M840,180 L850,180 L850,190 L840,190 Z" fill="#000000"/>
<path d="M860,180 L870,180 L870,190 L860,190 Z" fill="#000000"/>
<path d="M880,180 L890,180 L890,190 L880,190 Z" fill="#000000"/>
<path d="M900,180 L910,180 L910,190 L900,190 Z" fill="#000000"/>
<path d="M920,180 L930,180 L930,190 L920,190 Z" fill="#000000"/>
<path d="M940,180 L950,180 L950,190 L940,190 Z" fill="#000000"/>
<path d="M960,180 L970,180 L970,190 L960,190 Z" fill="#000000"/>
<path d="M980,180 L990,180 L990,190 L980,190 Z" fill="#000000"/>
<path d="M0,200 L10,200 L10,210 L0,210 Z" fill="#000000"/>
<path d="M20,200 L30,200 L30,210 L20,210 Z" fill="#000000"/>
<path d="M40,200 L50,200 L50,210 L40,210 Z" fill="#000000"/>
<path d="M60,200 L70,200 L70,210 L60,210 Z" fill="#000000"/>
<path d="M80,200 L90,200 L90,210 L80,210 Z" fill="#000000"/>
<path d="M100,200 L110,200 L110,210 L100,210 Z" fill="#000000"/>
<path d="M120,200 L130,200 L130,210 L120,210 Z" fill="#000000"/>
<path d="M140,200 L150,200 L150,210 L140,210 Z" fill="#000000"/>
<path d="M160,200 L170,200 L170,210 L160,210 Z" fill="#000000"/>
<path d="M180,200 L190,200 L190,210 L180,210 Z" fill="#000000"/>
<path d="M200,200 L210,200 L210,210 L200,210 Z" fill="#000000"/>
<path d="M220,200 L230,200 L230,210 L220,210 Z" fill="#000000"/>
<path d="M240,200 L250,200 L250,210 L240,210 Z" fill="#000000"/>
<path d="M260,200 L270,200 L270,210 L260,210 Z" fill="#000000"/>
<path d="M280,200 L290,200 L290,210 L280,210 Z" fill="#000000"/>
<path d="M300,200 L310,200 L310,210 L300,210 Z" fill="#000000"/>
<path d="M320,200 L330,200 L330,210 L320,210 Z" fill="#000000"/>
<path d="M340,200 L350,200 L350,210 L340,210 Z" fill="#000000"/>
<path d="M360,200 L370,200 L370,210 L360,210 Z" fill="#000000"/>
<path d="M380,200 L390,200 L390,210 L380,210 Z" fill="#000000"/>
<path d="M400,200 L410,200 L410,210 L400,210 Z" fill="#000000"/>
<path d="M420,200 L430,200 L430,210 L420,210 Z" fill="#000000"/>
<path d="M440,200 L450,200 L450,210 L440,210 Z" fill="#000000"/>
<path d="M460,200 L470,200 L470,210 L460,210 Z" fill="#000000"/>
<path d="M480,200 L490,200 L490,210 L480,210 Z" fill="#000000"/>
<path d="M500,200 L510,200 L510,210 L500,210 Z" fill="#000000"/>
<path d="M520,200 L530,200 L530,210 L520,210 Z" fill="#000000"/>
<path d="M540,200 L550,200 L550,210 L540,210 Z" fill="#000000"/>
<path d="M560,200 L570,200 L570,210 L560,210 Z" fill="#000000"/>
<path d="M580,200 L590,200 L590,210 L580,210 Z" fill="#000000"/>
<path d="M600,200 L610,200 L610,210 L600,210 Z" fill="#000000"/>
<path d="M620,200 L630,200 L630,210 L620,210 Z" fill="#000000"/>
<path d="M640,200 L650,200 L650,210 L640,210 Z" fill="#000000"/>
<path d="M660,200 L670,200 L670,210 L660,210 Z" fill="#000000"/>
<path d="M680,200 L690,200 L690,210 L680,210 Z" fill="#000000"/>
<path d="M700,200 L710,200 L710,210 L700,210 Z" fill="#000000"/>
<path d="M720,200 L730,200 L730,210 L720,210 Z" fill="#000000"/>
<path d="M740,200 L750,200 L750,210 L740,210 Z" fill="#000000"/>
<path d="M760,200 L770,200 L770,210 L760,210 Z" fill="#000000"/>
<path d="M780,200 L790,200 L790,210 L780,210 Z" fill="#000000"/>
<path d="M800,200 L810,200 L810,210 L800,210 Z" fill="#000000"/>
<path d="M820,200 L830,200 L830,210 L820,210 Z" fill="#000000"/>
<path d="M840,200 L850,200 L850,210 L840,210 Z" fill="#000000"/>
<path d="M860,200 L870,200 L870,210 L860,210 Z" fill="#000000"/>
<path d="M880,200 L890,200 L890,210 L880,210 Z" fill="#000000"/>
<path d="M900,200 L910,200 L910,210 L900,210 Z" fill="#000000"/>
<path d="M920,200 L930,200 L930,210 L920,210 Z" fill="#000000"/>
<path d="M940,200 L950,200 L950,210 L940,210 Z" fill="#000000"/>
<path d="M960,200 L970,200 L970,210 L960,210 Z" fill="#000000"/>
<path d="M980,200 L990,200 L990,210 L980,210 Z" fill="#000000"/>
<path d="M0,220 L10,220 L10,230 L0,230 Z" fill="#000000"/>
<path d="M20,220 L30,220 L30,230 L20,230 Z" fill="#000000"/>
<path d="M40,220 L50,220 L50,230 L40,230 Z" fill="#000000"/>
<path d="M60,220 L70,220 L70,230 L60,230 Z" fill="#000000"/>
<path d="M80,220 L90,220 L90,230 L80,230 Z" fill="#000000"/>
<path d="M100,220 L110,220 L110,230 L100,230 Z" fill="#000000"/>
<path d="M120,220 L130,220 L130,230 L120,230 Z" fill="#000000"/>
<path d="M140,220 L150,220 L150,230 L140,230 Z" fill="#000000"/>
<path d="M160,220 L170,220 L170,230 L160,230 Z" fill="#000000"/>
<path d="M180,220 L190,220 L190,230 L180,230 Z" fill="#000000"/>
<path d="M200,220 L210,220 L210,230 L200,230 Z" fill="#000000"/>
<path d="M220,220 L230,220 L230,230 L220,230 Z" fill="#000000"/>
<path d="M240,220 L250,220 L250,230 L240,230 Z" fill="#000000"/>
<path d="M260,220 L270,220 L270,230 L260,230 Z" fill="#000000"/>
<path d="M280,220 L290,220 L290,230 L280,230 Z" fill="#000000"/>
<path d="M300,220 L310,220 L310,230 L300,230 Z" fill="#000000"/>
<path d="M320,220 L330,220 L330,230 L320,230 Z" fill="#000000"/>
<path d="M340,220 L350,220 L350,230 L340,230 Z" fill="#000000"/>
<path d="M360,220 L370,220 L370,230 L360,230 Z" fill="#000000"/>
<path d="M380,220 L390,220 L390,230 L380,230 Z" fill="#000000"/>
<path d="M400,220 L410,220 L410,230 L400,230 Z" fill="#000000"/>
<path d="M420,220 L430,220 L430,230 L420,230 Z" fill="#000000"/>
<path d="M440,220 L450,220 L450,230 L440,230 Z" fill="#000000"/>
<path d="M460,220 L470,220 L470,230 L460,230 Z" fill="#000000"/>
<path d="M480,220 L490,220 L490,230 L480,230 Z" fill="#000000"/>
<path d="M500,220 L510,220 L510,230 L500,230 Z" fill="#000000"/>
<path d="M520,220 L530,220 L530,230 L520,230 Z" fill="#000000"/>
<path d="M540,220 L550,220 L550,230 L540,230 Z" fill="#000000"/>
<path d="M560,220 L570,220 L570,230 L560,230 Z" fill="#000000"/>
<path d="M580,220 L590,220 L590,230 L580,230 Z" fill="#000000"/>
<path d="M600,220 L610,220 L610,230 L600,230 Z" fill="#000000"/>
<path d="M620,220 L630,220 L630,230 L620,230 Z" fill="#000000"/>
<path d="M640,220 L650,220 L650,230 L640,230 Z" fill="#000000"/>
<path d="M660,220 L670,220 L670,230 L660,230 Z" fill="#000000"/>
<path d="M680,220 L690,220 L690,230 L680,230 Z" fill="#000000"/>
<path d="M700,220 L710,220 L710,230 L700,230 Z" fill="#000000"/>
<path d="M720,220 L730,220 L730,230 L720,230 Z" fill="#000000"/>
<path d="M740,220 L750,220 L750,230 L740,230 Z" fill="#000000"/>
<path d="M760,220 L770,220 L770,230 L760,230 Z" fill="#000000"/>
<path d="M780,220 L790,220 L790,230 L780,230 Z" fill="#000000"/>
<path d="M800,220 L810,220 L810,230 L800,230 Z" fill="#000000"/>
<path d="M820,220 L830,220 L830,230 L820,230 Z" fill="#000000"/>
<path d="M840,220 L850,220 L850,230 L840,230 Z" fill="#000000"/>
<path d="M860,220 L870,220 L870,230 L860,230 Z" fill="#000000"/>
<path d="M880,220 L890,220 L890,230 L880,230 Z" fill="#000000"/>
<path d="M900,220 L910,220 L910,230 L900,230 Z" fill="#000000"/>
<path d="M920,220 L930,220 L930,230 L920,230 Z" fill="#000000"/>
<path d="M940,220 L950,220 L950,230 L940,230 Z" fill="#000000"/>
<path d="M960,220 L970,220 L970,230 L960,230 Z" fill="#000000"/>
<path d="M980,220 L990,220 L990,230 L980,230 Z" fill="#000000"/>
<path d="M0,240 L10,240 L10,250 L0,250 Z" fill="#000000"/>
<path d="M20,240 L30,240 L30,250 L20,250 Z" fill="#000000"/>
<path d="M40,240 L50,240 L50,250 L40,250 Z" fill="#000000"/>
<path d="M60,240 L70,240 L70,250 L60,250 Z" fill="#000000"/>
<path d="M80,240 L90,240 L90,250 L80,250 Z" fill="#000000"/>
<path d="M100,240 L110,240 L110,250 L100,250 Z" fill="#000000"/>
<path d="M120,240 L130,240 L130,250 L120,250 Z" fill="#000000"/>
<path d="M140,240 L150,240 L150,250 L140,250 Z" fill="#000000"/>
<path d="M160,240 L170,240 L170,250 L160,250 Z" fill="#000000"/>
<path d="M180,240 L190,240 L190,250 L180,250 Z" fill="#000000"/>
<path d="M200,240 L210,240 L210,250 L200,250 Z" fill="#000000"/>
<path d="M220,240 L230,240 L230,250 L220,250 Z" fill="#000000"/>
<path d="M240,240 L250,240 L250,250 L240,250 Z" fill="#000000"/>
<path d="M260,240 L270,240 L270,250 L260,250 Z" fill="#000000"/>
<path d="M280,240 L290,240 L290,250 L280,250 Z" fill="#000000"/>
<path d="M300,240 L310,240 L310,250 L300,250 Z" fill="#000000"/>
<path d="M320,240 L330,240 L330,250 L320,250 Z" fill="#000000"/>
<path d="M340,240 L350,240 L350,250 L340,250 Z" fill="#000000"/>
<path d="M360,240 L370,240 L370,250 L360,250 Z" fill="#000000"/>
<path d="M380,240 L390,240 L390,250 L380,250 Z" fill="#000000"/>
<path d="M400,240 L410,240 L410,250 L400,250 Z" fill="#000000"/>
<path d="M420,240 L430,240 L430,250 L420,250 Z" fill="#000000"/>
<path d="M440,240 L450,240 L450,250 L440,250 Z" fill="#000000"/>
<path d="M460,240 L470,240 L470,250 L460,250 Z" fill="#000000"/>
<path d="M480,240 L490,240 L490,250 L480,250 Z" fill="#000000"/>
<path d="M500,240 L510,240 L510,250 L500,250 Z" fill="#000000"/>
<path d="M520,240 L530,240 L530,250 L520,250 Z" fill="#000000"/>
<path d="M540,240 L550,240 L550,250 L540,250 Z" fill="#000000"/>
<path d="M560,240 L570,240 L570,250 L560,250 Z" fill="#000000"/>
<path d="M580,240 L590,240 L590,250 L580,250 Z" fill="#000000"/>
<path d="M600,240 L610,240 L610,250 L600,250 Z" fill="#000000"/>
<path d="M620,240 L630,240 L630,250 L620,250 Z" fill="#000000"/>
<path d="M640,240 L650,240 L650,250 L640,250 Z" fill="#000000"/>
<path d="M660,240 L670,240 L670,250 L660,250 Z" fill="#000000"/>
<path d="M680,240 L690,240 L690,250 L680,250 Z" fill="#000000"/>
<path d="M700,240 L710,240 L710,250 L700,250 Z" fill="#000000"/>
<path d="M720,240 L730,240 L730,250 L720,250 Z" fill="#000000"/>
<path d="M740,240 L750,240 L750,250 L740,250 Z" fill="#000000"/>
<path d="M760,240 L770,240 L770,250 L760,250 Z" fill="#000000"/>
<path d="M780,240 L790,240 L790,250 L780,250 Z" fill="#000000"/>
<path d="M800,240 L810,240 L810,250 L800,250 Z" fill="#000000"/>
<path d="M820,240 L830,240 L830,250 L820,250 Z" fill="#000000"/>
<path d="M840,240 L850,240 L850,250 L840,250 Z" fill="#000000"/>
<path d="M860,240 L870,240 L870,250 L860,250 Z" fill="#000000"/>
<path d="M880,240 L890,240 L890,250 L880,250 Z" fill="#000000"/>
<path d="M900,240 L910,240 L910,250 L900,250 Z" fill="#000000"/>
<path d="M920,240 L930,240 L930,250 L920,250 Z" fill="#000000"/>
<path d="M940,240 L950,240 L950,250 L940,250 Z" fill="#000000"/>
<path d="M960,240 L970,240 L970,250 L960,250 Z" fill="#000000"/>
<path d="M980,240 L990,240 L990,250 L980,250 Z" fill="#000000"/>
<path d="M0,260 L10,260 L10,270 L0,270 Z" fill="#000000"/>
<path d="M20,260 L30,260 L30,270 L20,270 Z" fill="#000000"/>
<path d="M40,260 L50,260 L50,270 L40,270 Z" fill="#000000"/>
<path d="M60,260 L70,260 L70,270 L60,270 Z" fill="#000000"/>
<path d="M80,260 L90,260 L90,270 L80,270 Z" fill="#000000"/>
<path d="M100,260 L110,260 L110,270 L100,270 Z" fill="#000000"/>
<path d="M120,260 L130,260 L130,270 L120,270 Z" fill="#000000"/>
<path d="M140,260 L150,260 L150,270 L140,270 Z" fill="#000000"/>
<path d="M160,260 L170,260 L170,270 L160,270 Z" fill="#000000"/>
<path d="M180,260 L190,260 L190,270 L180,270 Z" fill="#000000"/>
<path d="M200,260 L210,260 L210,270 L200,270 Z" fill="#000000"/>
<path d="M220,260 L230,260 L230,270 L220,270 Z" fill="#000000"/>
<path d="M240,260 L250,260 L250,270 L240,270 Z" fill="#000000"/>
<path d="M260,260 L270,260 L270,270 L260,270 Z" fill="#000000"/>
<path d="M280,260 L290,260 L290,270 L280,270 Z" fill="#000000"/>
<path d="M300,260 L310,260 L310,270 L300,270 Z" fill="#000000"/>
<path d="M320,260 L330,260 L330,270 L320,270 Z" fill="#000000"/>
<path d="M340,260 L350,260 L350,270 L340,270 Z" fill="#000000"/>
<path d="M360,260 L370,260 L370,270 L360,270 Z" fill="#000000"/>
<path d="M380,260 L390,260 L390,270 L380,270 Z" fill="#000000"/>
<path d="M400,260 L410,260 L410,270 L400,270 Z" fill="#000000"/>
<path d="M420,260 L430,260 L430,270 L420,270 Z" fill="#000000"/>
<path d="M440,260 L450,260 L450,270 L440,270 Z" fill="#000000"/>
<path d="M460,260 L470,260 L470,270 L460,270 Z" fill="#000000"/>
<path d="M480,260 L490,260 L490,270 L480,270 Z" fill="#000000"/>
<path d="M500,260 L510,260 L510,270 L500,270 Z" fill="#000000"/>
<path d="M520,260 L530,260 L530,270 L520,270 Z" fill="#000000"/>
<path d="M540,260 L550,260 L550,270 L540,270 Z" fill="#000000"/>
<path d="M560,260 L570,260 L570,270 L560,270 Z" fill="#000000"/>
<path d="M580,260 L590,260 L590,270 L580,270 Z" fill="#000000"/>
<path d="M600,260 L610,260 L610,270 L600,270 Z" fill="#000000"/>
<path d="M620,260 L630,260 L630,270 L620,270 Z" fill="#000000"/>
<path d="M640,260 L650,260 L650,270 L640,270 Z" fill="#000000"/>
<path d="M660,260 L670,260 L670,270 L660,270 Z" fill="#000000"/>
<path d="M680,260 L690,260 L690,270 L680,270 Z" fill="#000000"/>
<path d="M700,260 L710,260 L710,270 L700,270 Z" fill="#000000"/>
<path d="M720,260 L730,260 L730,270 L720,270 Z" fill="#000000"/>
<path d="M740,260 L750,260 L750,270 L740,270 Z" fill="#000000"/>
<path d="M760,260 L770,260 L770,270 L760,270 Z" fill="#000000"/>
<path d="M780,260 L790,260 L790,270 L780,270 Z" fill="#000000"/>
<path d="M800,260 L810,260 L810,270 L800,270 Z" fill="#000000"/>
<path d="M820,260 L830,260 L830,270 L820,270 Z" fill="#000000"/>
<path d="M840,260 L850,260 L850,270 L840,270 Z" fill="#000000"/>
<path d="M860,260 L870,260 L870,270 L860,270 Z" fill="#000000"/>
<path d="M880,260 L890,260 L890,270 L880,270 Z" fill="#000000"/>
<path d="M900,260 L910,260 L910,270 L900,270 Z" fill="#000000"/>
<path d="M920,260 L930,260 L930,270 L920,270 Z" fill="#000000"/>
<path d="M940,260 L950,260 L950,270 L940,270 Z" fill="#000000"/>
<path d="M960,260 L970,260 L970,270 L960,270 Z" fill="#000000"/>
<path d="M980,260 L990,260 L990,270 L980,270 Z" fill="#000000"/>
<path d="M0,280 L10,280 L10,290 L0,290 Z" fill="#000000"/>
<path d="M20,280 L30,280 L30,290 L20,290 Z" fill="#000000"/>
<path d="M40,280 L50,280 L50,290 L40,290 Z" fill="#000000"/>
<path d="M60,280 L70,280 L70,290 L60,290 Z" fill="#000000"/>
<path d="M80,280 L90,280 L90,290 L80,290 Z" fill="#000000"/>
<path d="M100,280 L110,280 L110,290 L100,290 Z" fill="#000000"/>
<path d="M120,280 L130,280 L130,290 L120,290 Z" fill="#000000"/>
<path d="M140,280 L150,280 L150,290 L140,290 Z" fill="#000000"/>
<path d="M160,280 L170,280 L170,290 L160,290 Z" fill="#000000"/>
<path d="M180,280 L190,280 L190,290 L180,290 Z" fill="#000000"/>
<path d="M200,280 L210,280 L210,290 L200,290 Z" fill="#000000"/>
<path d="M220,280 L230,280 L230,290 L220,290 Z" fill="#000000"/>
<path d="M240,280 L250,280 L250,290 L240,290 Z" fill="#000000"/>
<path d="M260,280 L270,280 L270,290 L260,290 Z" fill="#000000"/>
<path d="M280,280 L290,280 L290,290 L280,290 Z" fill="#000000"/>
<path d="M300,280 L310,280 L310,290 L300,290 Z" fill="#000000"/>
<path d="M320,280 L330,280 L330,290 L320,290 Z" fill="#000000"/>
<path d="M340,280 L350,280 L350,290 L340,290 Z" fill="#000000"/>
<path d="M360,280 L370,280 L370,290 L360,290 Z" fill="#000000"/>
<path d="M380,280 L390,280 L390,290 L380,290 Z" fill="#000000"/>
<path d="M400,280 L410,280 L410,290 L400,290 Z" fill="#000000"/>
<path d="M420,280 L430,280 L430,290 L420,290 Z" fill="#000000"/>
<path d="M440,280 L450,280 L450,290 L440,290 Z" fill="#000000"/>
<path d="M460,280 L470,280 L470,290 L460,290 Z" fill="#000000"/>
<path d="M480,280 L490,280 L490,290 L480,290 Z" fill="#000000"/>
<path d="M500,280 L510,280 L510,290 L500,290 Z" fill="#000000"/>
<path d="M520,280 L530,280 L530,290 L520,290 Z" fill="#000000"/>
<path d="M540,280 L550,280 L550,290 L540,290 Z" fill="#000000"/>
<path d="M560,280 L570,280 L570,290 L560,290 Z" fill="#000000"/>
<path d="M580,280 L590,280 L590,290 L580,290 Z" fill="#000000"/>
<path d="M600,280 L610,280 L610,290 L600,290 Z" fill="#000000"/>
<path d="M620,280 L630,280 L630,290 L620,290 Z" fill="#000000"/>
<path d="M640,280 L650,280 L650,290 L640,290 Z" fill="#000000"/>
<path d="M660,280 L670,280 L670,290 L660,290 Z" fill="#000000"/>
<path d="M680,280 L690,280 L690,290 L680,290 Z" fill="#000000"/>
<path d="M700,280 L710,280 L710,290 L700,290 Z" fill="#000000"/>
<path d="M720,280 L730,280 L730,290 L720,290 Z" fill="#000000"/>
<path d="M740,280 L750,280 L750,290 L740,290 Z" fill="#000000"/>
<path d="M760,280 L770,280 L770,290 L760,290 Z" fill="#000000"/>
<path d="M780,280 L790,280 L790,290 L780,290 Z" fill="#000000"/>
<path d="M800,280 L810,280 L810,290 L800,290 Z" fill="#000000"/>
<path d="M820,280 L830,280 L830,290 L820,290 Z" fill="#000000"/>
<path d="M840,280 L850,280 L850,290 L840,290 Z" fill="#000000"/>
<path d="M860,280 L870,280 L870,290 L860,290 Z" fill="#000000"/>
<path d="M880,280 L890,280 L890,290 L880,290 Z" fill="#000000"/>
<path d="M900,280 L910,280 L910,290 L900,290 Z" fill="#000000"/>
<path d="M920,280 L930,280 L930,290 L920,290 Z" fill="#000000"/>
<path d="M940,280 L950,280 L950,290 L940,290 Z" fill="#000000"/>
<path d="M960,280 L970,280 L970,290 L960,290 Z" fill="#000000"/>
<path d="M980,280 L990,280 L990,290 L980,290 Z" fill="#000000"/>
<path d="M0,300 L10,300 L10,310 L0,310 Z" fill="#000000"/>
<path d="M20,300 L30,300 L30,310 L20,310 Z" fill="#000000"/>
<path d="M40,300 L50,300 L50,310 L40,310 Z" fill="#000000"/>
<path d="M60,300 L70,300 L70,310 L60,310 Z" fill="#000000"/>
<path d="M80,300 L90,300 L90,310 L80,310 Z" fill="#000000"/>
<path d="M100,300 L110,300 L110,310 L100,310 Z" fill="#000000"/>
<path d="M120,300 L130,300 L130,310 L120,310 Z" fill="#000000"/>
<path d="M140,300 L150,300 L150,310 L140,310 Z" fill="#000000"/>
<path d="M160,300 L170,300 L170,310 L160,310 Z" fill="#000000"/>
<path d="M180,300 L190,300 L190,310 L180,310 Z" fill="#000000"/>
<path d="M200,300 L210,300 L210,310 L200,310 Z" fill="#000000"/>
<path d="M220,300 L230,300 L230,310 L220,310 Z" fill="#000000"/>
<path d="M240,300 L250,300 L250,310 L240,310 Z" fill="#000000"/>
<path d="M260,300 L270,300 L270,310 L260,310 Z" fill="#000000"/>
<path d="M280,300 L290,300 L290,310 L280,310 Z" fill="#000000"/>
<path d="M300,300 L310,300 L310,310 L300,310 Z" fill="#000000"/>
<path d="M320,300 L330,300 L330,310 L320,310 Z" fill="#000000"/>
<path d="M340,300 L350,300 L350,310 L340,310 Z" fill="#000000"/>
<path d="M360,300 L370,300 L370,310 L360,310 Z" fill="#000000"/>
<path d="M380,300 L390,300 L390,310 L380,310 Z" fill="#000000"/>
<path d="M400,300 L410,300 L410,310 L400,310 Z" fill="#000000"/>
<path d="M420,300 L430,300 L430,310 L420,310 Z" fill="#000000"/>
<path d="M440,300 L450,300 L450,310 L440,310 Z" fill="#000000"/>
<path d="M460,300 L470,300 L470,310 L460,310 Z" fill="#000000"/>
<path d="M480,300 L490,300 L490,310 L480,310 Z" fill="#000000"/>
<path d="M500,300 L510,300 L510,310 L500,310 Z" fill="#000000"/>
<path d="M520,300 L530,300 L530,310 L520,310 Z" fill="#000000"/>
<path d="M540,300 L550,300 L550,310 L540,310 Z" fill="#000000"/>
<path d="M560,300 L570,300 L570,310 L560,310 Z" fill="#000000"/>
<path d="M580,300 L590,300 L590,310 L580,310 Z" fill="#000000"/>
<path d="M600,300 L610,300 L610,310 L600,310 Z" fill="#000000"/>
<path d="M620,300 L630,300 L630,310 L620,310 Z" fill="#000000"/>
<path d="M640,300 L650,300 L650,310 L640,310 Z" fill="#000000"/>
<path d="M660,300 L670,300 L670,310 L660,310 Z" fill="#000000"/>
<path d="M680,300 L690,300 L690,310 L680,310 Z" fill="#000000"/>
<path d="M700,300 L710,300 L710,310 L700,310 Z" fill="#000000"/>
<path d="M720,300 L730,300 L730,310 L720,310 Z" fill="#000000"/>
<path d="M740,300 L750,300 L750,310 L740,310 Z" fill="#000000"/>
<path d="M760,300 L770,300 L770,310 L760,310 Z" fill="#000000"/>
<path d="M780,300 L790,300 L790,310 L780,310 Z" fill="#000000"/>
<path d="M800,300 L810,300 L810,310 L800,310 Z" fill="#000000"/>
<path d="M820,300 L830,300 L830,310 L820,310 Z" fill="#000000"/>
<path d="M840,300 L850,300 L850,310 L840,310 Z" fill="#000000"/>
<path d="M860,300 L870,300 L870,310 L860,310 Z" fill="#000000"/>
<path d="M880,300 L890,300 L890,310 L880,310 Z" fill="#000000"/>
<path d="M900,300 L910,300 L910,310 L900,310 Z" fill="#000000"/>
<path d="M920,300 L930,300 L930,310 L920,310 Z" fill="#000000"/>
<path d="M940,300 L950,300 L950,310 L940,310 Z" fill="#000000"/>
<path d="M960,300 L970,300 L970,310 L960,310 Z" fill="#000000"/>
<path d="M980,300 L990,300 L990,310 L980,310 Z" fill="#000000"/>
<path d="M0,320 L10,320 L10,330 L0,330 Z" fill="#000000"/>
<path d="M20,320 L30,320 L30,330 L20,330 Z" fill="#000000"/>
<path d="M40,320 L50,320 L50,330 L40,330 Z" fill="#000000"/>
<path d="M60,320 L70,320 L70,330 L60,330 Z" fill="#000000"/>
<path d="M80,320 L90,320 L90,330 L80,330 Z" fill="#000000"/>
<path d="M100,320 L110,320 L110,330 L100,330 Z" fill="#000000"/>
<path d="M120,320 L130,320 L130,330 L120,330 Z" fill="#000000"/>
<path d="M140,320 L150,320 L150,330 L140,330 Z" fill="#000000"/>
<path d="M160,320 L170,320 L170,330 L160,330 Z" fill="#000000"/>
<path d="M180,320 L190,320 L190,330 L180,330 Z" fill="#000000"/>
<path d="M200,320 L210,320 L210,330 L200,330 Z" fill="#000000"/>
<path d="M220,320 L230,320 L230,330 L220,330 Z" fill="#000000"/>
<path d="M240,320 L250,320 L250,330 L240,330 Z" fill="#000000"/>
<path d="M260,320 L270,320 L270,330 L260,330 Z" fill="#000000"/>
<path d="M280,320 L290,320 L290,330 L280,330 Z" fill="#000000"/>
<path d="M300,320 L310,320 L310,330 L300,330 Z" fill="#000000"/>
<path d="M320,320 L330,320 L330,330 L320,330 Z" fill="#000000"/>
<path d="M340,320 L350,320 L350,330 L340,330 Z" fill="#000000"/>
<path d="M360,320 L370,320 L370,330 L360,330 Z" fill="#000000"/>
<path d="M380,320 L390,320 L390,330 L380,330 Z" fill="#000000"/>
<path d="M400,320 L410,320 L410,330 L400,330 Z" fill="#000000"/>
<path d="M420,320 L430,320 L430,330 L420,330 Z" fill="#000000"/>
<path d="M440,320 L450,320 L450,330 L440,330 Z" fill="#000000"/>
<path d="M460,320 L470,320 L470,330 L460,330 Z" fill="#000000"/>
<path d="M480,320 L490,320 L490,330 L480,330 Z" fill="#000000"/>
<path d="M500,320 L510,320 L510,330 L500,330 Z" fill="#000000"/>
<path d="M520,320 L530,320 L530,330 L520,330 Z" fill="#000000"/>
<path d="M540,320 L550,320 L550,330 L540,330 Z" fill="#000000"/>
<path d="M560,320 L570,320 L570,330 L560,330 Z" fill="#000000"/>
<path d="M580,320 L590,320 L590,330 L580,330 Z" fill="#000000"/>
<path d="M600,320 L610,320 L610,330 L600,330 Z" fill="#000000"/>
<path d="M620,320 L630,320 L630,330 L620,330 Z" fill="#000000"/>
<path d="M640,320 L650,320 L650,330 L640,330 Z" fill="#000000"/>
<path d="M660,320 L670,320 L670,330 L660,330 Z" fill="#000000"/>
<path d="M680,320 L690,320 L690,330 L680,330 Z" fill="#000000"/>
<path d="M700,320 L710,320 L710,330 L700,330 Z" fill="#000000"/>
<path d="M720,320 L730,320 L730,330 L720,330 Z" fill="#000000"/>
<path d="M740,320 L750,320 L750,330 L740,330 Z" fill="#000000"/>
<path d="M760,320 L770,320 L770,330 L760,330 Z" fill="#000000"/>
<path d="M780,320 L790,320 L790,330 L780,330 Z" fill="#000000"/>
<path d="M800,320 L810,320 L810,330 L800,330 Z" fill="#000000"/>
<path d="M820,320 L830,320 L830,330 L820,330 Z" fill="#000000"/>
<path d="M840,320 L850,320 L850,330 L840,330 Z" fill="#000000"/>
<path d="M860,320 L870,320 L870,330 L860,330 Z" fill="#000000"/>
<path d="M880,320 L890,320 L890,330 L880,330 Z" fill="#000000"/>
<path d="M900,320 L910,320 L910,330 L900,330 Z" fill="#000000"/>
<path d="M920,320 L930,320 L930,330 L920,330 Z" fill="#000000"/>
<path d="M940,320 L950,320 L950,330 L940,330 Z" fill="#000000"/>
<path d="M960,320 L970,320 L970,330 L960,330 Z" fill="#000000"/>
<path d="M980,320 L990,320 L990,330 L980,330 Z" fill="#000000"/>
<path d="M0,340 L10,340 L10,350 L0,350 Z" fill="#000000"/>
<path d="M20,340 L30,340 L30,350 L20,350 Z" fill="#000000"/>
<path d="M40,340 L50,340 L50,350 L40,350 Z" fill="#000000"/>
<path d="M60,340 L70,340 L70,350 L60,350 Z" fill="#000000"/>
<path d="M80,340 L90,340 L90,350 L80,350 Z" fill="#000000"/>
<path d="M100,340 L110,340 L110,350 L100,350 Z" fill="#000000"/>
<path d="M120,340 L130,340 L130,350 L120,350 Z" fill="#000000"/>
<path d="M140,340 L150,340 L150,350 L140,350 Z" fill="#000000"/>
<path d="M160,340 L170,340 L170,350 L160,350 Z" fill="#000000"/>
<path d="M180,340 L190,340 L190,350 L180,350 Z" fill="#000000"/>
<path d="M200,340 L210,340 L210,350 L200,350 Z" fill="#000000"/>
<path d="M220,340 L230,340 L230,350 L220,350 Z" fill="#000000"/>
<path d="M240,340 L250,340 L250,350 L240,350 Z" fill="#000000"/>
<path d="M260,340 L270,340 L270,350 L260,350 Z" fill="#000000"/>
<path d="M280,340 L290,340 L290,350 L280,350 Z" fill="#000000"/>
<path d="M300,340 L310,340 L310,350 L300,350 Z" fill="#000000"/>
<path d="M320,340 L330,340 L330,350 L320,350 Z" fill="#000000"/>
<path d="M340,340 L350,340 L350,350 L340,350 Z" fill="#000000"/>
<path d="M360,340 L370,340 L370,350 L360,350 Z" fill="#000000"/>
<path d="M380,340 L390,340 L390,350 L380,350 Z" fill="#000000"/>
<path d="M400,340 L410,340 L410,350 L400,350 Z" fill="#000000"/>
<path d="M420,340 L430,340 L430,350 L420,350 Z" fill="#000000"/>
<path d="M440,340 L450,340 L450,350 L440,350 Z" fill="#000000"/>
<path d="M460,340 L470,340 L470,350 L460,350 Z" fill="#000000"/>
<path d="M480,340 L490,340 L490,350 L480,350 Z" fill="#000000"/>
<path d="M500,340 L510,340 L510,350 L500,350 Z" fill="#000000"/>
<path d="M520,340 L530,340 L530,350 L520,350 Z" fill="#000000"/>
<path d="M540,340 L550,340 L550,350 L540,350 Z" fill="#000000"/>
<path d="M560,340 L570,340 L570,350 L560,350 Z" fill="#000000"/>
<path d="M580,340 L590,340 L590,350 L580,350 Z" fill="#000000"/>
<path d="M600,340 L610,340 L610,350 L600,350 Z" fill="#000000"/>
<path d="M620,340 L630,340 L630,350 L620,350 Z" fill="#000000"/>
<path d="M640,340 L650,340 L650,350 L640,350 Z" fill="#000000"/>
<path d="M660,340 L670,340 L670,350 L660,350 Z" fill="#000000"/>
<path d="M680,340 L690,340 L690,350 L680,350 Z" fill="#000000"/>
<path d="M700,340 L710,340 L710,350 L700,350 Z" fill="#000000"/>
<path d="M720,340 L730,340 L730,350 L720,350 Z" fill="#000000"/>
<path d="M740,340 L750,340 L750,350 L740,350 Z" fill="#000000"/>
<path d="M760,340 L770,340 L770,350 L760,350 Z" fill="#000000"/>
<path d="M780,340 L790,340 L790,350 L780,350 Z" fill="#000000"/>
<path d="M800,340 L810,340 L810,350 L800,350 Z" fill="#000000"/>
<path d="M820,340 L830,340 L830,350 L820,350 Z" fill="#000000"/>
<path d="M840,340 L850,340 L850,350 L840,350 Z" fill="#000000"/>
<path d="M860,340 L870,340 L870,350 L860,350 Z" fill="#000000"/>
<path d="M880,340 L890,340 L890,350 L880,350 Z" fill="#000000"/>
<path d="M900,340 L910,340 L910,350 L900,350 Z" fill="#000000"/>
<path d="M920,340 L930,340 L930,350 L920,350 Z" fill="#000000"/>
<path d="M940,340 L950,340 L950,350 L940,350 Z" fill="#000000"/>
<path d="M960,340 L970,340 L970,350 L960,350 Z" fill="#000000"/>
<path d="M980,340 L990,340 L990,350 L980,350 Z" fill="#000000"/>
<path d="M0,360 L10,360 L10,370 L0,370 Z" fill="#000000"/>
<path d="M20,360 L30,360 L30,370 L20,370 Z" fill="#000000"/>
<path d="M40,360 L50,360 L50,370 L40,370 Z" fill="#000000"/>
<path d="M60,360 L70,360 L70,370 L60,370 Z" fill="#000000"/>
<path d="M80,360 L90,360 L90,370 L80,370 Z" fill="#000000"/>
<path d="M100,360 L110,360 L110,370 L100,370 Z" fill="#000000"/>
<path d="M120,360 L130,360 L130,370 L120,370 Z" fill="#000000"/>
<path d="M140,360 L150,360 L150,370 L140,370 Z" fill="#000000"/>
<path d="M160,360 L170,360 L170,370 L160,370 Z" fill="#000000"/>
<path d="M180,360 L190,360 L190,370 L180,370 Z" fill="#000000"/>
<path d="M200,360 L210,360 L210,370 L200,370 Z" fill="#000000"/>
<path d="M220,360 L230,360 L230,370 L220,370 Z" fill="#000000"/>
<path d="M240,360 L250,360 L250,370 L240,370 Z" fill="#000000"/>
<path d="M260,360 L270,360 L270,370 L260,370 Z" fill="#000000"/>
<path d="M280,360 L290,360 L290,370 L280,370 Z" fill="#000000"/>
<path d="M300,360 L310,360 L310,370 L300,370 Z" fill="#000000"/>
<path d="M320,360 L330,360 L330,370 L320,370 Z" fill="#000000"/>
<path d="M340,360 L350,360 L350,370 L340,370 Z" fill="#000000"/>
<path d="M360,360 L370,360 L370,370 L360,370 Z" fill="#000000"/>
<path d="M380,360 L390,360 L390,370 L380,370 Z" fill="#000000"/>
<path d="M400,360 L410,360 L410,370 L400,370 Z" fill="#000000"/>
<path d="M420,360 L430,360 L430,370 L420,370 Z" fill="#000000"/>
<path d="M440,360 L450,360 L450,370 L440,370 Z" fill="#000000"/>
<path d="M460,360 L470,360 L470,370 L460,370 Z" fill="#000000"/>
<path d="M480,360 L490,360 L490,370 L480,370 Z" fill="#000000"/>
<path d="M500,360 L510,360 L510,370 L500,370 Z" fill="#000000"/>
<path d="M520,360 L530,360 L530,370 L520,370 Z" fill="#000000"/>
<path d="M540,360 L550,360 L550,370 L540,370 Z" fill="#000000"/>
<path d="M560,360 L570,360 L570,370 L560,370 Z" fill="#000000"/>
<path d="M580,360 L590,360 L590,370 L580,370 Z" fill="#000000"/>
<path d="M600,360 L610,360 L610,370 L600,370 Z" fill="#000000"/>
<path d="M620,360 L630,360 L630,370 L620,370 Z" fill="#000000"/>
<path d="M640,360 L650,360 L650,370 L640,370 Z" fill="#000000"/>
<path d="M660,360 L670,360 L670,370 L660,370 Z" fill="#000000"/>
<path d="M680,360 L690,360 L690,370 L680,370 Z" fill="#000000"/>
<path d="M700,360 L710,360 L710,370 L700,370 Z" fill="#000000"/>
<path d="M720,360 L730,360 L730,370 L720,370 Z" fill="#000000"/>
<path d="M740,360 L750,360 L750,370 L740,370 Z" fill="#000000"/>
<path d="M760,360 L770,360 L770,370 L760,370 Z" fill="#000000"/>
<path d="M780,360 L790,360 L790,370 L780,370 Z" fill="#000000"/>
<path d="M800,360 L810,360 L810,370 L800,370 Z" fill="#000000"/>
<path d="M820,360 L830,360 L830,370 L820,370 Z" fill="#000000"/>
<path d="M840,360 L850,360 L850,370 L840,370 Z" fill="#000000"/>
<path d="M860,360 L870,360 L870,370 L860,370 Z" fill="#000000"/>
<path d="M880,360 L890,360 L890,370 L880,370 Z" fill="#000000"/>
<path d="M900,360 L910,360 L910,370 L900,370 Z" fill="#000000"/>
<path d="M920,360 L930,360 L930,370 L920,370 Z" fill="#000000"/>
<path d="M940,360 L950,360 L950,370 L940,370 Z" fill="#000000"/>
<path d="M960,360 L970,360 L970,370 L960,370 Z" fill="#000000"/>
<path d="M980,360 L990,360 L990,370 L980,370 Z" fill="#000000"/>
<path d="M0,380 L10,380 L10,390 L0,390 Z" fill="#000000"/>
<path d="M20,380 L30,380 L30,390 L20,390 Z" fill="#000000"/>
<path d="M40,380 L50,380 L50,390 L40,390 Z" fill="#000000"/>
<path d="M60,380 L70,380 L70,390 L60,390 Z" fill="#000000"/>
<path d="M80,380 L90,380 L90,390 L80,390 Z" fill="#000000"/>
<path d="M100,380 L110,380 L110,390 L100,390 Z" fill="#000000"/>
<path d="M120,380 L130,380 L130,390 L120,390 Z" fill="#000000"/>
<path d="M140,380 L150,380 L150,390 L140,390 Z" fill="#000000"/>
<path d="M160,380 L170,380 L170,390 L160,390 Z" fill="#000000"/>
<path d="M180,380 L190,380 L190,390 L180,390 Z" fill="#000000"/>
<path d="M200,380 L210,380 L210,390 L200,390 Z" fill="#000000"/>
<path d="M220,380 L230,380 L230,390 L220,390 Z" fill="#000000"/>
<path d="M240,380 L250,380 L250,390 L240,390 Z" fill="#000000"/>
<path d="M260,380 L270,380 L270,390 L260,390 Z" fill="#000000"/>
<path d="M280,380 L290,380 L290,390 L280,390 Z" fill="#000000"/>
<path d="M300,380 L310,380 L310,390 L300,390 Z" fill="#000000"/>
<path d="M320,380 L330,380 L330,390 L320,390 Z" fill="#000000"/>
<path d="M340,380 L350,380 L350,390 L340,390 Z" fill="#000000"/>
<path d="M360,380 L370,380 L370,390 L360,390 Z" fill="#000000"/>
<path d="M380,380 L390,380 L390,390 L380,390 Z" fill="#000000"/>
<path d="M400,380 L410,380 L410,390 L400,390 Z" fill="#000000"/>
<path d="M420,380 L430,380 L430,390 L420,390 Z" fill="#000000"/>
<path d="M440,380 L450,380 L450,390 L440,390 Z" fill="#000000"/>
<path d="M460,380 L470,380 L470,390 L460,390 Z" fill="#000000"/>
<path d="M480,380 L490,380 L490,390 L480,390 Z" fill="#000000"/>
<path d="M500,380 L510,380 L510,390 L500,390 Z" fill="#000000"/>
<path d="M520,380 L530,380 L530,390 L520,390 Z" fill="#000000"/>
<path d="M540,380 L550,380 L550,390 L540,390 Z" fill="#000000"/>
<path d="M560,380 L570,380 L570,390 L560,390 Z" fill="#000000"/>
<path d="M580,380 L590,380 L590,390 L580,390 Z" fill="#000000"/>
<path d="M600,380 L610,380 L610,390 L600,390 Z" fill="#000000"/>
<path d="M620,380 L630,380 L630,390 L620,390 Z" fill="#000000"/>
<path d="M640,380 L650,380 L650,390 L640,390 Z" fill="#000000"/>
<path d="M660,380 L670,380 L670,390 L660,390 Z" fill="#000000"/>
<path d="M680,380 L690,380 L690,390 L680,390 Z" fill="#000000"/>
<path d="M700,380 L710,380 L710,390 L700,390 Z" fill="#000000"/>
<path d="M720,380 L730,380 L730,390 L720,390 Z" fill="#000000"/>
<path d="M740,380 L750,380 L750,390 L740,390 Z" fill="#000000"/>
<path d="M760,380 L770,380 L770,390 L760,390 Z" fill="#000000"/>
<path d="M780,380 L790,380 L790,390 L780,390 Z" fill="#000000"/>
<path d="M800,380 L810,380 L810,390 L800,390 Z" fill="#000000"/>
<path d="M820,380 L830,380 L830,390 L820,390 Z" fill="#000000"/>
<path d="M840,380 L850,380 L850,390 L840,390 Z" fill="#000000"/>
<path d="M860,380 L870,380 L870,390 L860,390 Z" fill="#000000"/>
<path d="M880,380 L890,380 L890,390 L880,390 Z" fill="#000000"/>
<path d="M900,380 L910,380 L910,390 L900,390 Z" fill="#000000"/>
<path d="M920,380 L930,380 L930,390 L920,390 Z" fill="#000000"/>
<path d="M940,380 L950,380 L950,390 L940,390 Z" fill="#000000"/>
<path d="M960,380 L970,380 L970,390 L960,390 Z" fill="#000000"/>
<path d="M980,380 L990,380 L990,390 L980,390 Z" fill="#000000"/>
  </g>
</svg>