<svg width="17" height="17" viewBox="0 0 17 17" fill="none" xmlns="http://www.w3.org/2000/svg">
<path d="M3.69231 3V12.8077C3.69231 13.0838 3.91617 13.3077 4.19231 13.3077H14M3.69231 3L2 4.69231M3.69231 3L5.38462 4.69231M14 13.3077L12.3077 11.6154M14 13.3077L12.3077 15" stroke="white" stroke-linecap="round" stroke-linejoin="round"/>
<path d="M10.4312 2.61233C10.5512 2.45562 10.8008 2.56517 10.7667 2.75956L10.3 5.41861H12.8101C13.0076 5.41861 13.1176 5.64706 12.9943 5.80143L9.11447 10.6592C8.98476 10.8216 8.7262 10.6855 8.78672 10.4866L9.70001 7.4862H7.17732C6.98201 7.4862 6.87143 7.26229 6.99016 7.1072L10.4312 2.61233Z" fill="white"/>
</svg>
